<svg width="34" height="37" viewBox="0 0 34 37" fill="none" xmlns="http://www.w3.org/2000/svg">
<path d="M26.2326 3.53357C26.6269 3.82306 27.2019 3.66772 27.3658 3.20679L27.783 2.0334C27.8822 1.75432 28.1464 1.56789 28.4425 1.56789H32.2787C32.6653 1.56789 32.9787 1.88129 32.9787 2.26789V11.9996C32.9787 12.3862 32.6653 12.6996 32.2787 12.6996H27.9353C27.6504 12.6996 27.396 12.5255 27.2771 12.2666C26.4524 10.4707 25.3749 9.54635 23.8563 8.49453C21.8334 7.09344 20.3311 6.94189 18.0669 6.94189C16.1261 6.94189 14.3794 7.45944 12.8267 8.49453C11.2957 9.52962 10.1096 10.9313 9.2686 12.6996C8.42759 14.4679 8.00709 16.3979 8.00709 18.4896C8.00709 22.0478 8.95592 24.9589 10.8536 27.2232C12.7513 29.4659 15.2527 30.5873 18.358 30.5873C22.9271 30.5873 26.2211 28.5723 28.2399 24.5425C28.4164 24.1903 28.8405 24.0314 29.1961 24.2009L33.4866 26.2464C33.8326 26.4113 33.9826 26.8243 33.8118 27.1674C30.6483 33.523 25.4 36.7008 18.0669 36.7008C14.6813 36.7008 11.673 35.9029 9.04218 34.3071C6.41132 32.7114 4.37348 30.5226 2.92867 27.7408C1.50542 24.959 0.793793 21.8752 0.793793 18.4896C0.793793 15.1687 1.5162 12.1497 2.96102 9.43258C4.42739 6.71546 6.43289 4.60215 8.97748 3.09264C11.5221 1.56157 14.3578 0.796033 17.4846 0.796033C20.8306 0.796033 23.7465 1.70855 26.2326 3.53357Z" fill="#373C3D"/>
</svg>
