<svg width="99" height="44" viewBox="0 0 99 44" fill="none" xmlns="http://www.w3.org/2000/svg">
<g clip-path="url(#clip0_58_164)">
<path d="M19.2272 28.9094L18.1247 28.8609H8.22363L21.4291 15.7993L21.3801 14.7088C21.3547 13.8628 21.0036 13.0583 20.3985 12.4598C19.7934 11.8613 18.9801 11.514 18.1247 11.4889L17.0253 11.4434H0.51532L0.579632 12.5309C0.705195 14.2999 2.01288 15.6418 3.81363 15.7508L4.91613 15.7993H14.8386L1.61169 28.8609L1.66069 29.9514C1.69255 30.7953 2.04576 31.5962 2.64951 32.1933C3.25325 32.7905 4.0629 33.1399 4.91613 33.1714L6.01863 33.2168H22.5286L22.4796 32.1294C22.3356 30.3452 21.0433 29.0366 19.2241 28.9276L19.2272 28.9094ZM32.448 11.4464H32.4327C17.7603 11.4616 17.7725 33.2168 32.4327 33.2168C47.1082 33.2168 47.1082 11.4646 32.448 11.4464ZM37.1061 26.9556C36.4985 27.5879 35.7689 28.0933 34.9605 28.442C34.1521 28.7907 33.2812 28.9756 32.3993 28.9858C31.5174 28.9959 30.6424 28.8312 29.826 28.5012C29.0096 28.1712 28.2683 27.6828 27.646 27.0646C27.0232 26.4479 26.5312 25.7142 26.1991 24.9067C25.867 24.0992 25.7013 23.2343 25.7119 22.3626C25.7224 21.4909 25.909 20.6301 26.2606 19.8307C26.6122 19.0313 27.1217 18.3095 27.7593 17.7077C33.9946 11.8554 43.0228 20.7853 37.1061 26.9556ZM89.6647 11.4464C87.1443 11.4464 84.7524 12.5157 83.0773 14.3938C81.6592 12.8061 79.7052 11.7835 77.5804 11.517C75.4556 11.2505 73.3054 11.7585 71.5316 12.9459C70.6864 11.9978 68.7539 11.4464 67.6698 11.4464V33.2168L68.7723 33.1714C70.6068 33.0411 71.9451 31.7659 72.0094 29.9514L72.0706 28.8609V21.2396L72.1196 20.1522C72.1686 19.3313 72.2789 18.6043 72.6617 17.9742C73.2453 16.9737 74.2069 16.2434 75.3349 15.9441C76.4628 15.6447 77.6648 15.8007 78.6764 16.3779C79.3471 16.7565 79.8861 17.3108 80.269 17.9561C80.6518 18.6013 80.762 19.3282 80.811 20.1491L80.8753 21.2366V28.8579L80.9213 29.9484C81.0346 31.7144 82.3576 33.0381 84.1767 33.1683L85.2792 33.2138V21.2396L85.3251 20.1522C85.3588 19.3495 85.4844 18.5891 85.8672 17.9591C86.2538 17.2967 86.8102 16.7469 87.4804 16.3653C88.1505 15.9837 88.9105 15.7837 89.6838 15.7855C90.4571 15.7874 91.2161 15.991 91.8844 16.3758C92.5526 16.7606 93.1064 17.313 93.4898 17.9773C93.8573 18.6073 93.9706 19.3495 94.0165 20.1552L94.0808 21.2427V28.864L94.1298 29.9544C94.1638 30.7977 94.5177 31.5973 95.121 32.194C95.7243 32.7908 96.5327 33.1408 97.3853 33.1744L98.4847 33.2198V20.1582C98.4815 17.8469 97.5507 15.6314 95.8969 13.9984C94.2431 12.3655 92.0015 11.4487 89.6647 11.4495V11.4464ZM47.7758 14.6331C46.7101 15.6328 45.8576 16.8335 45.2687 18.1644C44.6798 19.4953 44.3663 20.9294 44.3469 22.3821C44.3275 23.8347 44.6025 25.2765 45.1557 26.6223C45.7088 27.9682 46.5289 29.1908 47.5676 30.218C48.6054 31.2468 49.8411 32.0596 51.2017 32.6084C52.5624 33.1571 54.0204 33.4306 55.4896 33.4128C56.9589 33.395 58.4097 33.0863 59.7563 32.5048C61.103 31.9233 62.3182 31.0808 63.3303 30.0271C73.2038 19.7735 58.1454 4.88232 47.7758 14.6301V14.6331ZM60.2188 26.9556C59.6088 27.579 58.8794 28.076 58.0731 28.4176C57.2668 28.7592 56.3999 28.9385 55.5228 28.9452C54.6457 28.9518 53.7761 28.7857 52.9646 28.4563C52.1531 28.127 51.4161 27.6412 50.7965 27.0271C50.1769 26.4131 49.6871 25.6831 49.3558 24.8798C49.0244 24.0766 48.8581 23.2161 48.8666 22.3486C48.875 21.481 49.0581 20.6239 49.405 19.8271C49.752 19.0303 50.2559 18.3098 50.8873 17.7077C57.1073 11.713 66.2948 20.7853 60.2188 26.9556Z" fill="#B3BBBC"/>
</g>
<defs>
<clipPath id="clip0_58_164">
<rect width="98" height="43" fill="white" transform="translate(0.5 0.464844)"/>
</clipPath>
</defs>
</svg>
