<svg width="168" height="30" viewBox="0 0 168 30" fill="none" xmlns="http://www.w3.org/2000/svg">
<path d="M23.6427 17.425C23.6427 19.397 23.375 21.1437 22.8398 22.6649C22.3186 24.1862 21.5509 25.4751 20.5367 26.5315C19.5366 27.5739 18.3252 28.3627 16.9026 28.8979C15.494 29.4332 13.9023 29.7008 12.1275 29.7008C10.4653 29.7008 8.937 29.4332 7.5425 28.8979C6.16208 28.3627 4.95774 27.5739 3.92947 26.5315C2.91529 25.4751 2.12647 24.1862 1.56304 22.6649C1.01369 21.1437 0.739014 19.397 0.739014 17.425C0.739014 14.805 1.20385 12.5865 2.13352 10.7694C3.06319 8.95232 4.38726 7.57191 6.10574 6.62815C7.82422 5.6844 9.87371 5.21252 12.2542 5.21252C14.4657 5.21252 16.4237 5.6844 18.128 6.62815C19.8465 7.57191 21.1917 8.95232 22.1637 10.7694C23.1497 12.5865 23.6427 14.805 23.6427 17.425ZM7.31008 17.425C7.31008 18.9744 7.47911 20.2774 7.81717 21.3338C8.15523 22.3903 8.68346 23.1861 9.40184 23.7214C10.1202 24.2566 11.0569 24.5243 12.212 24.5243C13.3529 24.5243 14.2756 24.2566 14.9799 23.7214C15.6982 23.1861 16.2194 22.3903 16.5434 21.3338C16.8814 20.2774 17.0505 18.9744 17.0505 17.425C17.0505 15.8615 16.8814 14.5656 16.5434 13.5373C16.2194 12.4949 15.6982 11.7132 14.9799 11.192C14.2615 10.6708 13.3248 10.4102 12.1697 10.4102C10.4653 10.4102 9.22576 10.9948 8.45104 12.1639C7.6904 13.333 7.31008 15.0867 7.31008 17.425Z" fill="#373C3D"/>
<path d="M40.6531 5.21252C43.1745 5.21252 45.2028 5.90273 46.7382 7.28315C48.2735 8.64948 49.0412 10.8469 49.0412 13.8753V29.2783H43.2969C42.9103 29.2783 42.5969 28.9649 42.5969 28.5783V15.4811C42.5969 13.7908 42.287 12.5161 41.6673 11.6568C41.0616 10.7976 40.1037 10.368 38.7937 10.368C36.8217 10.368 35.4765 11.037 34.7581 12.3752C34.0398 13.7134 33.6806 15.6431 33.6806 18.1645V28.5783C33.6806 28.9649 33.3672 29.2783 32.9806 29.2783H27.9363C27.5497 29.2783 27.2363 28.9649 27.2363 28.5783V8.74331C27.2363 8.33833 27.579 8.01892 27.9831 8.04514C29.4521 8.14042 30.4731 8.15893 31.8603 7.68797C32.2274 7.56334 32.6374 7.73066 32.7844 8.08936L32.9511 8.49596C32.9961 8.60587 33.1031 8.67765 33.2219 8.67765C33.3232 8.67765 33.4169 8.62506 33.4721 8.54023C33.9633 7.78612 34.561 7.16989 35.2652 6.69154C36.0259 6.18445 36.864 5.81117 37.7796 5.57171C38.7092 5.33225 39.6671 5.21252 40.6531 5.21252Z" fill="#373C3D"/>
<path d="M70.4253 22.2635C70.4253 23.8693 70.045 25.2286 69.2843 26.3414C68.5378 27.4401 67.9037 28.2456 66.4106 28.8232C64.9175 29.3866 63.3131 29.3839 61.0875 29.3839C59.4394 29.3839 58.0754 29.3839 56.0999 29.3839C53.343 29.3839 50.3426 29.2783 49.0412 29.2783V25.5048C49.0412 25.1182 49.3543 24.8048 49.7409 24.8048C51.4253 24.8048 53.842 24.8048 56.6631 24.8048C58.1964 24.8048 59.9747 24.8048 61.0875 24.8048C62.3411 24.8048 63.037 24.7214 63.5663 24.3593C63.9894 24.0698 64.0655 23.5664 64.0655 22.9607C64.0655 22.5663 63.9528 22.2142 63.7275 21.9043C63.5162 21.5803 63.0513 21.2211 62.333 20.8267C61.6146 20.4182 60.4877 19.89 58.9523 19.2421C57.4733 18.6223 56.2549 17.9955 55.297 17.3616C54.3533 16.7277 53.649 15.9812 53.1842 15.1219C52.7334 14.2486 52.508 13.1429 52.508 11.8047C52.508 9.6214 53.3532 7.9804 55.0435 6.8817C56.7479 5.76891 59.0228 5.21252 61.8681 5.21252C63.333 5.21252 64.4349 5.21252 66.0778 5.21252C68.0929 5.21252 69.6385 5.21252 71.3355 5.21252V10.4947C69.9713 10.4947 67.677 10.4947 65.0469 10.4947C63.5088 10.4947 62.7298 10.4947 61.6593 10.4947C60.7155 10.4947 60.1461 10.4947 59.5732 10.7429C59.1456 10.9693 59.0596 11.119 58.9508 11.4162C58.9234 11.4913 58.9087 11.571 58.9142 11.6507C58.9371 11.9823 59.0554 12.2801 59.2693 12.5442C59.5228 12.84 60.0017 13.171 60.706 13.5373C61.4244 13.8894 62.4738 14.3472 63.8542 14.9107C65.1924 15.46 66.3545 16.0375 67.3405 16.6432C68.3265 17.2348 69.0871 17.9743 69.6224 18.8617C70.1577 19.7351 70.4253 20.869 70.4253 22.2635Z" fill="#373C3D"/>
<path d="M83.6748 24.5665C84.3791 24.5665 85.0622 24.4961 85.7243 24.3552C86.0889 24.2793 86.4515 24.1931 86.8121 24.0966C87.27 23.9741 87.7315 24.3112 87.7315 24.7852V28.1702C87.7315 28.4459 87.5706 28.6982 87.313 28.7964C86.7033 29.0289 85.9836 29.2248 85.1538 29.3839C84.1396 29.5952 83.0268 29.7008 81.8154 29.7008C80.4068 29.7008 79.1391 29.4755 78.0122 29.0247C76.8995 28.5599 76.0191 27.764 75.3711 26.6372C74.7373 25.4962 74.4203 23.9115 74.4203 21.8832V11.1947C74.4203 10.8081 74.1069 10.4947 73.7203 10.4947H71.3355V5.21252H74.4137C74.6987 5.21252 74.9552 5.03971 75.0624 4.77558L76.5673 1.0645C76.6744 0.800373 76.931 0.627563 77.216 0.627563H80.1646C80.5512 0.627563 80.8646 0.940964 80.8646 1.32756V4.95623C80.8646 5.34282 81.178 5.65623 81.5646 5.65623H86.778C87.1646 5.65623 87.478 5.96963 87.478 6.35623V9.79473C87.478 10.1813 87.1646 10.4947 86.778 10.4947H81.5646C81.178 10.4947 80.8646 10.8081 80.8646 11.1947V21.8832C80.8646 22.7847 81.1182 23.4608 81.6253 23.9115C82.1465 24.3482 82.8296 24.5665 83.6748 24.5665Z" fill="#373C3D"/>
<path d="M103.981 5.21252C104.305 5.21252 104.679 5.23365 105.101 5.27591C105.262 5.28626 105.411 5.29852 105.548 5.31268C105.899 5.34872 106.136 5.66572 106.108 6.01684L105.743 10.5551C105.707 11.008 105.245 11.3337 104.792 11.2998C104.783 11.299 104.773 11.2983 104.763 11.2976C104.383 11.2554 104.052 11.2342 103.77 11.2342C102.939 11.2342 102.129 11.3399 101.34 11.5512C100.565 11.7625 99.8682 12.1076 99.2484 12.5865C98.6286 13.0513 98.1356 13.6711 97.7694 14.4458C97.4172 15.2065 97.2412 16.1432 97.2412 17.256V28.5783C97.2412 28.9649 96.9278 29.2783 96.5412 29.2783H91.4969C91.1103 29.2783 90.7969 28.9649 90.7969 28.5783V6.35623C90.7969 5.96963 91.1103 5.65623 91.4969 5.65623H95.1254C95.4492 5.65623 95.7308 5.87834 95.8062 6.19327L96.5858 9.45037C96.6108 9.5548 96.7042 9.62845 96.8115 9.62845C96.8944 9.62845 96.9707 9.5842 97.0132 9.5131C97.466 8.75526 98.0209 8.06125 98.6779 7.43105C99.3822 6.75492 100.178 6.21966 101.065 5.82526C101.967 5.41677 102.939 5.21252 103.981 5.21252Z" fill="#373C3D"/>
<path d="M129.694 5.65623C130.081 5.65623 130.394 5.96963 130.394 6.35623V28.5783C130.394 28.9649 130.081 29.2783 129.694 29.2783H125.977C125.665 29.2783 125.391 29.0714 125.304 28.7712L124.637 26.4445C124.606 26.3334 124.504 26.2568 124.388 26.2568C124.299 26.2568 124.217 26.3026 124.168 26.3769C123.674 27.1252 123.066 27.7402 122.344 28.2218C121.583 28.7289 120.745 29.1022 119.83 29.3416C118.914 29.5811 117.963 29.7008 116.977 29.7008C115.287 29.7008 113.815 29.405 112.561 28.8134C111.308 28.2077 110.329 27.271 109.624 26.0033C108.934 24.7356 108.589 23.0875 108.589 21.0591V6.35623C108.589 5.96963 108.902 5.65623 109.289 5.65623H114.333C114.72 5.65623 115.033 5.96963 115.033 6.35623V19.4534C115.033 21.1437 115.336 22.4184 115.942 23.2777C116.548 24.1369 117.512 24.5665 118.837 24.5665C120.147 24.5665 121.175 24.2707 121.921 23.6791C122.668 23.0734 123.189 22.1931 123.485 21.038C123.795 19.8689 123.95 18.4462 123.95 16.77V6.35623C123.95 5.96963 124.263 5.65623 124.65 5.65623H129.694Z" fill="#373C3D"/>
<path d="M145.017 29.7008C142.679 29.7008 140.685 29.2783 139.037 28.4331C137.389 27.5739 136.136 26.2498 135.276 24.4609C134.417 22.672 133.988 20.383 133.988 17.594C133.988 14.7064 134.474 12.3541 135.445 10.537C136.431 8.70582 137.791 7.36062 139.523 6.50138C141.27 5.64214 143.198 5.32709 145.494 5.32709C147.128 5.32709 148.03 5.32709 149.804 5.32709C151.289 5.32709 153.524 5.32709 154.493 5.32709V10.4947C153.366 10.4947 150.65 10.4102 148.974 10.4102C147.939 10.4102 146.461 10.4102 145.587 10.4102C144.46 10.4102 143.524 10.6778 142.777 11.2131C142.031 11.7343 141.474 12.5231 141.108 13.5795C140.742 14.636 140.559 15.9601 140.559 17.5518C140.559 19.1153 140.756 20.4112 141.15 21.4395C141.545 22.4677 142.115 23.2354 142.862 23.7425C143.608 24.2355 144.517 24.482 145.587 24.482C146.925 24.482 148.116 24.3059 149.158 23.9538C149.893 23.6955 151.157 23.2662 152.184 22.8083C152.684 22.5855 153.312 22.9334 153.354 23.479C153.445 24.6629 153.63 25.5421 154.052 26.6332C154.176 26.9545 154.064 27.3237 153.767 27.4974C152.726 28.1054 151.144 28.8921 149.342 29.2983C147.78 29.6502 146.665 29.7008 145.017 29.7008Z" fill="#373C3D"/>
<path d="M163.752 23.827C164.457 23.827 165.711 23.827 165.711 23.827C165.711 23.827 166.38 23.827 167.104 23.827C167.491 23.827 167.804 24.1404 167.804 24.527V29.0008C167.804 29.3874 167.491 29.7008 167.104 29.7008C166.173 29.7008 165.189 29.7008 165.189 29.7008C165.189 29.7008 163.1 29.7008 161.888 29.7008C160.48 29.7008 159.212 29.4755 158.085 29.0247C156.972 28.5599 156.092 27.764 155.444 26.6372C154.81 25.4962 154.493 23.9115 154.493 21.8832V10.4947V5.32709C154.774 5.32709 155.026 5.15572 155.129 4.89485L156.642 1.07004C156.748 0.802985 157.006 0.627563 157.293 0.627563H160.238C160.624 0.627563 160.938 0.940964 160.938 1.32756V4.62709C160.938 5.01369 161.251 5.32709 161.637 5.32709H166.851C167.237 5.32709 167.551 5.64049 167.551 6.02709V9.79473C167.551 10.1813 167.237 10.4947 166.851 10.4947H161.637C161.251 10.4947 160.938 10.8081 160.938 11.1947V21.8832C160.938 22.7847 161.042 23.0485 161.549 23.4992C162.07 23.9359 162.907 23.827 163.752 23.827Z" fill="#373C3D"/>
</svg>
