<svg width="43" height="15" viewBox="0 0 43 15" fill="none" xmlns="http://www.w3.org/2000/svg">
<path d="M3.55633 10.8445C2.68286 10.8445 1.97054 10.5035 1.41936 9.82156C0.872861 9.13493 0.599609 8.12834 0.599609 6.80179C0.599609 5.46122 0.877532 4.44763 1.43338 3.76099C1.98922 3.06969 2.71556 2.72404 3.61238 2.72404C3.98606 2.72404 4.31536 2.77542 4.60029 2.87818C4.88522 2.98094 5.13044 3.11874 5.33597 3.29156C5.54036 3.45962 5.71383 3.64755 5.85639 3.85535C5.86398 3.86642 5.8765 3.8731 5.88991 3.8731C5.91517 3.8731 5.93423 3.85019 5.92975 3.82533C5.9033 3.67826 5.87119 3.47464 5.83342 3.21449C5.79606 2.92022 5.77737 2.61894 5.77737 2.31066V1.80244C5.77737 1.58153 5.95646 1.40244 6.17737 1.40244H7.52135C7.74226 1.40244 7.92134 1.58153 7.92134 1.80244V10.3044C7.92134 10.5253 7.74226 10.7044 7.52134 10.7044H6.55092C6.38823 10.7044 6.24174 10.6058 6.18042 10.4551L5.88732 9.7348C5.87591 9.70677 5.84867 9.68844 5.81841 9.68844C5.79287 9.68844 5.76918 9.7016 5.7552 9.72297C5.62346 9.92437 5.46036 10.109 5.2659 10.277C5.06505 10.4498 4.8245 10.5876 4.54424 10.6904C4.26398 10.7931 3.93468 10.8445 3.55633 10.8445ZM4.30602 9.14194C4.88989 9.14194 5.30093 8.96912 5.53915 8.62346C5.78204 8.27314 5.91049 7.74766 5.92451 7.04702V6.8158C5.92451 6.05444 5.80773 5.4729 5.57419 5.0712C5.34064 4.66483 4.90624 4.46164 4.27099 4.46164C3.79922 4.46164 3.43021 4.66483 3.16397 5.0712C2.89772 5.47757 2.7646 6.06378 2.7646 6.82982C2.7646 7.59586 2.89772 8.17272 3.16397 8.56041C3.43488 8.9481 3.81557 9.14194 4.30602 9.14194Z" fill="url(#paint0_linear_101_16)"/>
<path d="M12.8124 2.72404C13.5364 2.72404 14.16 2.86417 14.6831 3.14443C15.2063 3.42001 15.6103 3.82172 15.8952 4.34954C16.1802 4.87735 16.3226 5.52195 16.3226 6.28331V6.92027C16.3226 7.14118 16.1435 7.32027 15.9226 7.32027H11.6868C11.4598 7.32027 11.2743 7.51014 11.3151 7.73344C11.3901 8.14383 11.5552 8.4802 11.8105 8.74257C12.1515 9.08355 12.6232 9.25404 13.2258 9.25404C13.7256 9.25404 14.1833 9.20266 14.599 9.0999C14.8297 9.04289 15.0639 8.97006 15.3017 8.88142C15.5762 8.77914 15.8812 8.97351 15.8812 9.26636V10.0424C15.8812 10.1947 15.7954 10.3349 15.6558 10.3956C15.3368 10.5344 15.0055 10.6397 14.6621 10.7114C14.2417 10.8001 13.7302 10.8445 13.1277 10.8445C12.343 10.8445 11.647 10.6997 11.0398 10.4101C10.4372 10.1205 9.96312 9.6791 9.61747 9.08589C9.27648 8.49268 9.106 7.74533 9.106 6.84383C9.106 5.92832 9.26014 5.16695 9.56842 4.55973C9.88138 3.94783 10.3158 3.49008 10.8716 3.18647C11.4275 2.87818 12.0744 2.72404 12.8124 2.72404ZM12.8264 4.24444C12.4107 4.24444 12.0651 4.37756 11.7895 4.64381C11.5913 4.83854 11.4544 5.11447 11.3787 5.47161C11.3305 5.69906 11.5181 5.89796 11.7506 5.89796H13.9129C14.1361 5.89796 14.3208 5.71384 14.2806 5.49429C14.2514 5.33548 14.2058 5.18745 14.1436 5.05018C14.0362 4.80262 13.8727 4.60644 13.6532 4.46164C13.4383 4.31684 13.1627 4.24444 12.8264 4.24444Z" fill="url(#paint1_linear_101_16)"/>
<path d="M22.9513 8.37824C22.9513 8.91073 22.8252 9.36148 22.5729 9.73048C22.3254 10.0948 21.954 10.3727 21.4589 10.5642C20.9638 10.7511 20.3472 10.8445 19.6092 10.8445C19.0627 10.8445 18.5933 10.8095 18.2009 10.7394C17.8947 10.6841 17.5856 10.5996 17.2736 10.486C17.1213 10.4305 17.0238 10.2833 17.0238 10.1212V9.24241C17.0238 8.95207 17.3244 8.75688 17.5975 8.85545C17.852 8.94732 18.1162 9.02881 18.3901 9.0999C18.8805 9.22135 19.3103 9.28207 19.6793 9.28207C20.095 9.28207 20.3916 9.22135 20.5691 9.0999C20.7513 8.97379 20.8423 8.8103 20.8423 8.60945C20.8423 8.47866 20.805 8.36189 20.7302 8.25913C20.6602 8.1517 20.506 8.03259 20.2678 7.9018C20.0296 7.76634 19.6559 7.59118 19.1468 7.37632C18.6563 7.1708 18.2523 6.96294 17.9347 6.75275C17.6217 6.54255 17.3882 6.29499 17.234 6.01006C17.0846 5.72046 17.0098 5.35379 17.0098 4.91005C17.0098 4.18605 17.2901 3.64188 17.8506 3.27755C18.4158 2.90854 19.1701 2.72404 20.1137 2.72404C20.5995 2.72404 21.0619 2.77309 21.501 2.87118C21.8317 2.94428 22.1689 3.04982 22.5125 3.18778C22.7125 3.26805 22.8013 3.49815 22.7182 3.69692L22.379 4.5081C22.293 4.71381 22.0556 4.80871 21.8483 4.72652C21.5969 4.62684 21.355 4.54088 21.1226 4.46865C20.7816 4.36121 20.4336 4.3075 20.0786 4.3075C19.7657 4.3075 19.5298 4.34953 19.371 4.43361C19.2122 4.51769 19.1328 4.64614 19.1328 4.81897C19.1328 4.94508 19.1725 5.05719 19.2519 5.15528C19.336 5.25337 19.4948 5.36313 19.7283 5.48458C19.9665 5.60135 20.3145 5.75316 20.7723 5.94C21.216 6.12217 21.6014 6.31368 21.9283 6.51453C22.2553 6.71071 22.5075 6.95593 22.685 7.2502C22.8625 7.5398 22.9513 7.91582 22.9513 8.37824Z" fill="url(#paint2_linear_101_16)"/>
<path d="M25.7818 2.87118C26.0027 2.87118 26.1818 3.05026 26.1818 3.27118V10.3044C26.1818 10.5253 26.0027 10.7044 25.7818 10.7044H24.4449C24.2239 10.7044 24.0449 10.5253 24.0449 10.3044V3.27118C24.0449 3.05026 24.2239 2.87118 24.4449 2.87118H25.7818ZM25.1168 0.846321C25.2788 0.846321 25.5525 0.846321 25.7819 0.846321C26.0028 0.846321 26.1818 1.02533 26.1818 1.24624C26.1818 1.45248 26.1818 1.68238 26.1818 1.87219C26.1818 2.09311 26.0028 2.27216 25.7819 2.27216C25.5795 2.27216 25.3449 2.27216 25.1922 2.27216C25.0194 2.27216 24.702 2.27216 24.4448 2.27216C24.2239 2.27216 24.0449 2.09311 24.0449 1.87219C24.0449 1.68238 24.0449 1.45248 24.0449 1.24624C24.0449 1.02532 24.2238 0.846315 24.4447 0.846317C24.6756 0.846319 24.9521 0.846321 25.1168 0.846321Z" fill="url(#paint3_linear_101_16)"/>
<path d="M30.148 14.1515C29.055 14.1515 28.2189 13.96 27.6397 13.577C27.0652 13.1987 26.7779 12.6662 26.7779 11.9796C26.7779 11.5078 26.9251 11.1131 27.2193 10.7955C27.3784 10.6238 27.5777 10.4787 27.8173 10.3602C28.0283 10.2559 28.0855 9.84617 27.941 9.66042C27.7775 9.44555 27.6958 9.21901 27.6958 8.98079C27.6958 8.68185 27.7822 8.43429 27.955 8.23811C27.9901 8.19734 28.0283 8.15677 28.0698 8.11638C28.3045 7.88762 28.2858 7.44221 28.053 7.21146C27.93 7.08951 27.8203 6.95062 27.7238 6.79478C27.4856 6.40242 27.3665 5.94 27.3665 5.40751C27.3665 4.83765 27.4903 4.35421 27.7378 3.95718C27.99 3.55547 28.3544 3.24952 28.8308 3.03933C29.3119 2.82914 29.8958 2.72404 30.5824 2.72404C30.7272 2.72404 30.8954 2.73338 31.0869 2.75207C31.2784 2.77075 31.4536 2.79177 31.6124 2.81512C31.7377 2.83303 31.8314 2.84818 31.8936 2.8606C31.9257 2.867 31.9582 2.87118 31.9909 2.87118H34.2742C34.4951 2.87118 34.6742 3.05026 34.6742 3.27118V3.64702C34.6742 3.82957 34.5506 3.98895 34.3738 4.03442L33.9867 4.13397C33.7219 4.20204 33.6027 4.5131 33.6847 4.77387C33.6901 4.79115 33.6953 4.80851 33.7003 4.82597C33.7564 5.02215 33.7844 5.23001 33.7844 5.44955C33.7844 6.29032 33.4901 6.94659 32.9016 7.41836C32.3177 7.88545 31.5049 8.119 30.4633 8.119C30.2755 8.10837 30.0957 8.09505 29.924 8.07903C29.8205 8.06938 29.7143 8.09627 29.6416 8.17061C29.5915 8.22188 29.5501 8.27475 29.5175 8.3292C29.4614 8.42262 29.4334 8.5207 29.4334 8.62346C29.4334 8.72623 29.4754 8.81264 29.5595 8.8827C29.6482 8.9481 29.779 8.99948 29.9519 9.03684C30.1293 9.06954 30.3489 9.08589 30.6105 9.08589H31.9417C32.8011 9.08589 33.4551 9.27039 33.9035 9.6394C34.3566 10.0084 34.5831 10.5502 34.5831 11.2649C34.5831 12.1804 34.2001 12.8904 33.4341 13.3949C32.6727 13.8993 31.5773 14.1515 30.148 14.1515ZM30.2391 12.7573C30.7482 12.7573 31.185 12.7082 31.5493 12.6101C31.9183 12.5167 32.2009 12.3813 32.3971 12.2038C32.5933 12.0309 32.6914 11.8231 32.6914 11.5802C32.6914 11.384 32.633 11.2275 32.5162 11.1108C32.4041 10.9986 32.2313 10.9192 31.9977 10.8725C31.7689 10.8258 31.4746 10.8025 31.1149 10.8025H30.0079C29.7463 10.8025 29.5104 10.8445 29.3003 10.9286C29.0947 11.0127 28.9312 11.1294 28.8098 11.2789C28.6884 11.433 28.6276 11.6105 28.6276 11.8114C28.6276 12.1057 28.7678 12.3369 29.048 12.505C29.333 12.6732 29.73 12.7573 30.2391 12.7573ZM30.5824 6.8158C30.9841 6.8158 31.2784 6.69202 31.4652 6.44446C31.6521 6.1969 31.7455 5.86059 31.7455 5.43553C31.7455 4.96377 31.6474 4.61111 31.4512 4.37756C31.2597 4.13934 30.9701 4.02023 30.5824 4.02023C30.1901 4.02023 29.8958 4.13934 29.6996 4.37756C29.5034 4.61111 29.4053 4.96377 29.4053 5.43553C29.4053 5.86059 29.5011 6.1969 29.6926 6.44446C29.8888 6.69202 30.1854 6.8158 30.5824 6.8158Z" fill="url(#paint4_linear_101_16)"/>
<path d="M39.8455 2.72404C40.6816 2.72404 41.3542 2.95292 41.8634 3.41067C42.3725 3.86376 42.6271 4.59242 42.6271 5.59668V10.3044C42.6271 10.5253 42.448 10.7044 42.2271 10.7044H40.8901C40.6692 10.7044 40.4901 10.5253 40.4901 10.3044V6.12917C40.4901 5.56866 40.3873 5.14593 40.1818 4.86101C39.981 4.57608 39.6633 4.43361 39.2289 4.43361C38.575 4.43361 38.1289 4.65548 37.8907 5.09922C37.6525 5.54297 37.5334 6.18289 37.5334 7.01899V10.3044C37.5334 10.5253 37.3543 10.7044 37.1334 10.7044H35.7964C35.5755 10.7044 35.3964 10.5253 35.3964 10.3044V3.27118C35.3964 3.05026 35.5755 2.87118 35.7964 2.87118H36.7275C36.9059 2.87118 37.0628 2.98939 37.112 3.16093L37.2973 3.80723C37.3085 3.84622 37.3441 3.8731 37.3847 3.8731C37.4162 3.8731 37.4453 3.85676 37.4624 3.83038C37.6256 3.57902 37.8245 3.37372 38.0589 3.21449C38.3111 3.04634 38.589 2.92256 38.8926 2.84315C39.2009 2.76374 39.5185 2.72404 39.8455 2.72404Z" fill="url(#paint5_linear_101_16)"/>
<defs>
<linearGradient id="paint0_linear_101_16" x1="1.89443" y1="6.97691" x2="43.975" y2="14.1515" gradientUnits="userSpaceOnUse">
<stop stop-color="#35D5EB"/>
<stop offset="1" stop-color="#2AED9C"/>
</linearGradient>
<linearGradient id="paint1_linear_101_16" x1="1.89443" y1="6.97691" x2="43.975" y2="14.1515" gradientUnits="userSpaceOnUse">
<stop stop-color="#35D5EB"/>
<stop offset="1" stop-color="#2AED9C"/>
</linearGradient>
<linearGradient id="paint2_linear_101_16" x1="1.89443" y1="6.97691" x2="43.975" y2="14.1515" gradientUnits="userSpaceOnUse">
<stop stop-color="#35D5EB"/>
<stop offset="1" stop-color="#2AED9C"/>
</linearGradient>
<linearGradient id="paint3_linear_101_16" x1="1.89443" y1="6.97691" x2="43.975" y2="14.1515" gradientUnits="userSpaceOnUse">
<stop stop-color="#35D5EB"/>
<stop offset="1" stop-color="#2AED9C"/>
</linearGradient>
<linearGradient id="paint4_linear_101_16" x1="1.89443" y1="6.97691" x2="43.975" y2="14.1515" gradientUnits="userSpaceOnUse">
<stop stop-color="#35D5EB"/>
<stop offset="1" stop-color="#2AED9C"/>
</linearGradient>
<linearGradient id="paint5_linear_101_16" x1="1.89443" y1="6.97691" x2="43.975" y2="14.1515" gradientUnits="userSpaceOnUse">
<stop stop-color="#35D5EB"/>
<stop offset="1" stop-color="#2AED9C"/>
</linearGradient>
</defs>
</svg>
