<svg width="269" height="50" viewBox="0 0 269 50" fill="none" xmlns="http://www.w3.org/2000/svg">
<path d="M115.832 30.6289C115.832 32.6009 115.564 34.3476 115.029 35.8689C114.508 37.3901 113.74 38.679 112.726 39.7354C111.726 40.7778 110.514 41.5666 109.092 42.1019C107.683 42.6371 106.091 42.9048 104.317 42.9048C102.655 42.9048 101.126 42.6371 99.7317 42.1019C98.3513 41.5666 97.1469 40.7778 96.1187 39.7354C95.1045 38.679 94.3157 37.3901 93.7522 35.8689C93.2029 34.3476 92.9282 32.6009 92.9282 30.6289C92.9282 28.0089 93.3931 25.7904 94.3227 23.9733C95.2524 22.1562 96.5765 20.7758 98.2949 19.8321C100.013 18.8883 102.063 18.4164 104.443 18.4164C106.655 18.4164 108.613 18.8883 110.317 19.8321C112.036 20.7758 113.381 22.1562 114.353 23.9733C115.339 25.7904 115.832 28.0089 115.832 30.6289ZM99.4993 30.6289C99.4993 32.1784 99.6683 33.4813 100.006 34.5377C100.344 35.5942 100.873 36.39 101.591 36.9253C102.309 37.4606 103.246 37.7282 104.401 37.7282C105.542 37.7282 106.465 37.4606 107.169 36.9253C107.887 36.39 108.409 35.5942 108.733 34.5377C109.071 33.4813 109.24 32.1784 109.24 30.6289C109.24 29.0654 109.071 27.7695 108.733 26.7412C108.409 25.6988 107.887 24.9171 107.169 24.3959C106.451 23.8747 105.514 23.6141 104.359 23.6141C102.655 23.6141 101.415 24.1987 100.64 25.3678C99.8796 26.537 99.4993 28.2906 99.4993 30.6289Z" fill="#373C3D"/>
<path d="M132.842 18.4164C135.364 18.4164 137.392 19.1066 138.927 20.4871C140.463 21.8534 141.23 24.0508 141.23 27.0793V42.4822H135.486C135.1 42.4822 134.786 42.1688 134.786 41.7822V28.6851C134.786 26.9947 134.476 25.72 133.856 24.8607C133.251 24.0015 132.293 23.5719 130.983 23.5719C129.011 23.5719 127.666 24.241 126.947 25.5791C126.229 26.9173 125.87 28.847 125.87 31.3684V41.7822C125.87 42.1688 125.556 42.4822 125.17 42.4822H120.125C119.739 42.4822 119.425 42.1688 119.425 41.7822V21.9472C119.425 21.5422 119.768 21.2228 120.172 21.2491C121.641 21.3443 122.662 21.3628 124.049 20.8919C124.417 20.7673 124.827 20.9346 124.974 21.2933L125.14 21.6999C125.185 21.8098 125.292 21.8816 125.411 21.8816V21.8816C125.512 21.8816 125.606 21.829 125.661 21.7441C126.152 20.99 126.75 20.3738 127.454 19.8955C128.215 19.3884 129.053 19.0151 129.969 18.7756C130.898 18.5362 131.856 18.4164 132.842 18.4164Z" fill="#373C3D"/>
<path d="M162.615 35.4674C162.615 37.0732 162.234 38.4325 161.474 39.5453C160.727 40.644 160.093 41.4496 158.6 42.0271C157.107 42.5905 155.502 42.5878 153.277 42.5878C151.629 42.5878 150.265 42.5878 148.289 42.5878C145.532 42.5878 142.532 42.4822 141.23 42.4822V38.7088C141.23 38.3222 141.544 38.0088 141.93 38.0088C143.615 38.0088 146.031 38.0088 148.852 38.0088C150.386 38.0088 152.164 38.0088 153.277 38.0088C154.53 38.0088 155.226 37.9253 155.756 37.5632C156.179 37.2737 156.255 36.7704 156.255 36.1647C156.255 35.7703 156.142 35.4181 155.917 35.1082C155.705 34.7842 155.241 34.4251 154.522 34.0306C153.804 33.6222 152.677 33.0939 151.142 32.446C149.663 31.8262 148.444 31.1994 147.486 30.5655C146.543 29.9317 145.838 29.1851 145.373 28.3259C144.923 27.4525 144.697 26.3468 144.697 25.0086C144.697 22.8253 145.542 21.1843 147.233 20.0856C148.937 18.9728 151.212 18.4164 154.057 18.4164C155.522 18.4164 156.624 18.4164 158.267 18.4164C160.282 18.4164 161.828 18.4164 163.525 18.4164V23.6986C162.161 23.6986 159.866 23.6986 157.236 23.6986C155.698 23.6986 154.919 23.6986 153.848 23.6986C152.905 23.6986 152.335 23.6986 151.762 23.9468C151.335 24.1732 151.249 24.323 151.14 24.6202C151.113 24.6952 151.098 24.7749 151.103 24.8547C151.126 25.1862 151.245 25.484 151.458 25.7481C151.712 26.0439 152.191 26.375 152.895 26.7412C153.614 27.0933 154.663 27.5511 156.043 28.1146C157.382 28.6639 158.544 29.2414 159.53 29.8471C160.516 30.4387 161.276 31.1783 161.812 32.0657C162.347 32.939 162.615 34.0729 162.615 35.4674Z" fill="#373C3D"/>
<path d="M175.864 37.7705C176.568 37.7705 177.251 37.7 177.913 37.5592C178.278 37.4832 178.641 37.397 179.001 37.3005C179.459 37.178 179.921 37.5151 179.921 37.9891V41.3742C179.921 41.6498 179.76 41.9021 179.502 42.0003C178.893 42.2328 178.173 42.4287 177.343 42.5878C176.329 42.7991 175.216 42.9048 174.005 42.9048C172.596 42.9048 171.328 42.6794 170.201 42.2286C169.089 41.7638 168.208 40.9679 167.56 39.8411C166.926 38.7001 166.61 37.1155 166.61 35.0871V24.3986C166.61 24.012 166.296 23.6986 165.91 23.6986H163.525V18.4164H166.603C166.888 18.4164 167.144 18.2436 167.252 17.9795L168.757 14.2684C168.864 14.0043 169.12 13.8315 169.405 13.8315H172.354C172.74 13.8315 173.054 14.1449 173.054 14.5315V18.1601C173.054 18.5467 173.367 18.8601 173.754 18.8601H178.967C179.354 18.8601 179.667 19.1735 179.667 19.5601V22.9986C179.667 23.3852 179.354 23.6986 178.967 23.6986H173.754C173.367 23.6986 173.054 24.012 173.054 24.3986V35.0871C173.054 35.9886 173.307 36.6647 173.814 37.1155C174.336 37.5521 175.019 37.7705 175.864 37.7705Z" fill="#373C3D"/>
<path d="M196.17 18.4164C196.494 18.4164 196.868 18.4376 197.29 18.4798C197.451 18.4902 197.6 18.5024 197.738 18.5166C198.088 18.5526 198.326 18.8696 198.297 19.2208L197.932 23.759C197.896 24.2119 197.435 24.5377 196.982 24.5037C196.972 24.503 196.962 24.5022 196.952 24.5015C196.572 24.4593 196.241 24.4382 195.959 24.4382C195.128 24.4382 194.318 24.5438 193.529 24.7551C192.755 24.9664 192.057 25.3115 191.438 25.7904C190.818 26.2552 190.325 26.875 189.959 27.6497C189.606 28.4104 189.43 29.3471 189.43 30.4599V41.7822C189.43 42.1688 189.117 42.4822 188.73 42.4822H183.686C183.299 42.4822 182.986 42.1688 182.986 41.7822V19.5601C182.986 19.1735 183.299 18.8601 183.686 18.8601H187.315C187.638 18.8601 187.92 19.0823 187.995 19.3972L188.775 22.6543C188.8 22.7587 188.893 22.8324 189.001 22.8324V22.8324C189.084 22.8324 189.16 22.7881 189.202 22.717C189.655 21.9592 190.21 21.2652 190.867 20.635C191.571 19.9588 192.367 19.4236 193.255 19.0292C194.156 18.6207 195.128 18.4164 196.17 18.4164Z" fill="#373C3D"/>
<path d="M221.883 18.8601C222.27 18.8601 222.583 19.1735 222.583 19.5601V41.7822C222.583 42.1688 222.27 42.4822 221.883 42.4822H218.167C217.854 42.4822 217.58 42.2753 217.494 41.9751L216.827 39.6484C216.795 39.5373 216.693 39.4608 216.578 39.4608V39.4608C216.489 39.4608 216.406 39.5066 216.357 39.5808C215.864 40.3292 215.255 40.9441 214.533 41.4257C213.772 41.9328 212.934 42.3061 212.019 42.5456C211.103 42.785 210.152 42.9048 209.166 42.9048C207.476 42.9048 206.004 42.609 204.75 42.0173C203.497 41.4117 202.518 40.4749 201.814 39.2072C201.123 37.9395 200.778 36.2914 200.778 34.2631V19.5601C200.778 19.1735 201.092 18.8601 201.478 18.8601H206.523C206.909 18.8601 207.223 19.1735 207.223 19.5601V32.6573C207.223 34.3476 207.525 35.6224 208.131 36.4816C208.737 37.3408 209.702 37.7705 211.026 37.7705C212.336 37.7705 213.364 37.4746 214.111 36.883C214.857 36.2773 215.378 35.397 215.674 34.2419C215.984 33.0728 216.139 31.6501 216.139 29.9739V19.5601C216.139 19.1735 216.452 18.8601 216.839 18.8601H221.883Z" fill="#373C3D"/>
<path d="M237.206 42.9048C234.868 42.9048 232.875 42.4822 231.227 41.637C229.579 40.7778 228.325 39.4537 227.466 37.6648C226.606 35.8759 226.177 33.5869 226.177 30.7979C226.177 27.9103 226.663 25.558 227.635 23.7409C228.621 21.9097 229.98 20.5645 231.713 19.7053C233.459 18.8461 235.387 18.531 237.683 18.531C239.317 18.531 240.219 18.531 241.993 18.531C243.479 18.531 245.713 18.531 246.682 18.531V23.6986C245.555 23.6986 242.839 23.6141 241.163 23.6141C240.128 23.6141 238.65 23.6141 237.777 23.6141C236.65 23.6141 235.713 23.8818 234.966 24.417C234.22 24.9382 233.663 25.727 233.297 26.7835C232.931 27.8399 232.748 29.164 232.748 30.7557C232.748 32.3192 232.945 33.6151 233.339 34.6434C233.734 35.6717 234.304 36.4393 235.051 36.9464C235.797 37.4394 236.706 37.6859 237.777 37.6859C239.115 37.6859 240.305 37.5099 241.347 37.1577C242.083 36.8994 243.346 36.4702 244.373 36.0123C244.873 35.7894 245.501 36.1373 245.543 36.6829C245.634 37.8668 245.819 38.7461 246.241 39.8371C246.365 40.1585 246.254 40.5276 245.956 40.7014C244.915 41.3093 243.334 42.096 241.531 42.5022C239.969 42.8541 238.854 42.9048 237.206 42.9048Z" fill="#373C3D"/>
<path d="M255.942 37.0309C256.646 37.0309 257.9 37.0309 257.9 37.0309V37.0309C257.9 37.0309 258.569 37.0309 259.294 37.0309C259.68 37.0309 259.994 37.3443 259.994 37.7309V42.2048C259.994 42.5914 259.68 42.9048 259.294 42.9048C258.363 42.9048 257.379 42.9048 257.379 42.9048V42.9048C257.379 42.9048 255.289 42.9048 254.078 42.9048C252.669 42.9048 251.401 42.6794 250.274 42.2286C249.162 41.7638 248.281 40.9679 247.633 39.8411C246.999 38.7001 246.682 37.1155 246.682 35.0871V23.6986V18.531V18.531C246.963 18.531 247.215 18.3596 247.318 18.0988L248.832 14.274C248.937 14.0069 249.195 13.8315 249.482 13.8315H252.427C252.813 13.8315 253.127 14.1449 253.127 14.5315V17.831C253.127 18.2176 253.44 18.531 253.827 18.531H259.04C259.427 18.531 259.74 18.8444 259.74 19.231V22.9986C259.74 23.3852 259.427 23.6986 259.04 23.6986H253.827C253.44 23.6986 253.127 24.012 253.127 24.3986V35.0871C253.127 35.9886 253.231 36.2524 253.738 36.7031C254.259 37.1398 255.096 37.0309 255.942 37.0309Z" fill="#373C3D"/>
<rect x="262.334" y="36.9722" width="5.85925" height="5.93248" rx="0.7" fill="#31E4A4"/>
<path d="M94.7455 17.0485C93.8721 17.0485 93.1597 16.7075 92.6086 16.0256C92.0621 15.3389 91.7888 14.3324 91.7888 13.0058C91.7888 11.6652 92.0667 10.6516 92.6226 9.965C93.1784 9.2737 93.9048 8.92805 94.8016 8.92805C95.1753 8.92805 95.5046 8.97943 95.7895 9.08219C96.0744 9.18495 96.3197 9.32275 96.5252 9.49557C96.7296 9.66363 96.903 9.85156 97.0456 10.0594C97.0532 10.0704 97.0657 10.0771 97.0791 10.0771V10.0771C97.1044 10.0771 97.1234 10.0542 97.119 10.0293C97.0925 9.88227 97.0604 9.67865 97.0226 9.4185C96.9853 9.12423 96.9666 8.82295 96.9666 8.51467V8.00645C96.9666 7.78554 97.1457 7.60645 97.3666 7.60645H98.7106C98.9315 7.60645 99.1106 7.78554 99.1106 8.00645V16.5084C99.1106 16.7293 98.9315 16.9084 98.7106 16.9084H97.7401C97.5774 16.9084 97.4309 16.8098 97.3696 16.6591L97.0765 15.9388C97.0651 15.9108 97.0379 15.8925 97.0076 15.8925V15.8925C96.9821 15.8925 96.9584 15.9056 96.9444 15.927C96.8127 16.1284 96.6496 16.3131 96.4551 16.481C96.2543 16.6538 96.0137 16.7916 95.7334 16.8944C95.4532 16.9971 95.1239 17.0485 94.7455 17.0485ZM95.4952 15.346C96.0791 15.346 96.4901 15.1731 96.7284 14.8275C96.9713 14.4772 97.0997 13.9517 97.1137 13.251V13.0198C97.1137 12.2584 96.9969 11.6769 96.7634 11.2752C96.5298 10.8688 96.0954 10.6656 95.4602 10.6656C94.9884 10.6656 94.6194 10.8688 94.3532 11.2752C94.0869 11.6816 93.9538 12.2678 93.9538 13.0338C93.9538 13.7999 94.0869 14.3767 94.3532 14.7644C94.6241 15.1521 95.0048 15.346 95.4952 15.346Z" fill="url(#paint0_linear_6_24)"/>
<path d="M104.002 8.92805C104.726 8.92805 105.349 9.06818 105.872 9.34844C106.395 9.62402 106.8 10.0257 107.084 10.5535C107.369 11.0814 107.512 11.726 107.512 12.4873V13.1243C107.512 13.3452 107.333 13.5243 107.112 13.5243H102.876C102.649 13.5243 102.464 13.7142 102.504 13.9374C102.579 14.3478 102.744 14.6842 103 14.9466C103.341 15.2876 103.812 15.4581 104.415 15.4581C104.915 15.4581 105.373 15.4067 105.788 15.3039C106.019 15.2469 106.253 15.1741 106.491 15.0854C106.765 14.9832 107.07 15.1775 107.07 15.4704V16.2465C107.07 16.3987 106.985 16.5389 106.845 16.5997C106.526 16.7384 106.195 16.8437 105.851 16.9154C105.431 17.0041 104.919 17.0485 104.317 17.0485C103.532 17.0485 102.836 16.9037 102.229 16.6141C101.626 16.3245 101.152 15.8831 100.807 15.2899C100.466 14.6967 100.295 13.9493 100.295 13.0478C100.295 12.1323 100.449 11.371 100.758 10.7637C101.071 10.1518 101.505 9.69409 102.061 9.39048C102.617 9.08219 103.264 8.92805 104.002 8.92805ZM104.016 10.4484C103.6 10.4484 103.254 10.5816 102.979 10.8478C102.781 11.0425 102.644 11.3185 102.568 11.6756C102.52 11.9031 102.707 12.102 102.94 12.102H105.102C105.325 12.102 105.51 11.9179 105.47 11.6983C105.441 11.5395 105.395 11.3915 105.333 11.2542C105.225 11.0066 105.062 10.8104 104.842 10.6656C104.628 10.5208 104.352 10.4484 104.016 10.4484Z" fill="url(#paint1_linear_6_24)"/>
<path d="M114.14 14.5823C114.14 15.1147 114.014 15.5655 113.762 15.9345C113.515 16.2988 113.143 16.5767 112.648 16.7683C112.153 16.9551 111.536 17.0485 110.798 17.0485C110.252 17.0485 109.782 17.0135 109.39 16.9434C109.084 16.8881 108.775 16.8036 108.463 16.69C108.31 16.6345 108.213 16.4873 108.213 16.3252V15.4464C108.213 15.1561 108.514 14.9609 108.787 15.0595C109.041 15.1513 109.305 15.2328 109.579 15.3039C110.07 15.4254 110.499 15.4861 110.868 15.4861C111.284 15.4861 111.581 15.4254 111.758 15.3039C111.94 15.1778 112.032 15.0143 112.032 14.8135C112.032 14.6827 111.994 14.5659 111.919 14.4631C111.849 14.3557 111.695 14.2366 111.457 14.1058C111.219 13.9704 110.845 13.7952 110.336 13.5803C109.846 13.3748 109.442 13.1669 109.124 12.9568C108.811 12.7466 108.577 12.499 108.423 12.2141C108.274 11.9245 108.199 11.5578 108.199 11.1141C108.199 10.3901 108.479 9.84589 109.04 9.48156C109.605 9.11255 110.359 8.92805 111.303 8.92805C111.789 8.92805 112.251 8.9771 112.69 9.07519C113.021 9.14829 113.358 9.25383 113.702 9.39179C113.902 9.47206 113.991 9.70216 113.907 9.90093L113.568 10.7121C113.482 10.9178 113.245 11.0127 113.038 10.9305C112.786 10.8308 112.544 10.7449 112.312 10.6727C111.971 10.5652 111.623 10.5115 111.268 10.5115C110.955 10.5115 110.719 10.5535 110.56 10.6376C110.401 10.7217 110.322 10.8502 110.322 11.023C110.322 11.1491 110.362 11.2612 110.441 11.3593C110.525 11.4574 110.684 11.5671 110.918 11.6886C111.156 11.8054 111.504 11.9572 111.961 12.144C112.405 12.3262 112.791 12.5177 113.118 12.7185C113.445 12.9147 113.697 13.1599 113.874 13.4542C114.052 13.7438 114.14 14.1198 114.14 14.5823Z" fill="url(#paint2_linear_6_24)"/>
<path d="M116.971 9.07519C117.192 9.07519 117.371 9.25427 117.371 9.47519V16.5084C117.371 16.7293 117.192 16.9084 116.971 16.9084H115.634C115.413 16.9084 115.234 16.7293 115.234 16.5084V9.47519C115.234 9.25427 115.413 9.07519 115.634 9.07519H116.971ZM116.306 7.05033C116.468 7.05033 116.742 7.05033 116.971 7.05033C117.192 7.05033 117.371 7.22934 117.371 7.45025C117.371 7.65649 117.371 7.88639 117.371 8.0762C117.371 8.29712 117.192 8.47617 116.971 8.47617C116.769 8.47617 116.534 8.47617 116.381 8.47617C116.209 8.47617 115.891 8.47617 115.634 8.47617C115.413 8.47617 115.234 8.29712 115.234 8.0762C115.234 7.88639 115.234 7.65649 115.234 7.45025C115.234 7.22933 115.413 7.05033 115.634 7.05033C115.865 7.05033 116.141 7.05033 116.306 7.05033Z" fill="url(#paint3_linear_6_24)"/>
<path d="M121.337 20.3556C120.244 20.3556 119.408 20.164 118.829 19.781C118.254 19.4027 117.967 18.8702 117.967 18.1836C117.967 17.7118 118.114 17.3171 118.409 16.9995C118.568 16.8278 118.767 16.6827 119.007 16.5642C119.218 16.4599 119.275 16.0502 119.13 15.8644V15.8644C118.967 15.6496 118.885 15.423 118.885 15.1848C118.885 14.8859 118.971 14.6383 119.144 14.4421C119.179 14.4014 119.218 14.3608 119.259 14.3204C119.494 14.0916 119.475 13.6462 119.242 13.4155C119.119 13.2935 119.009 13.1546 118.913 12.9988C118.675 12.6064 118.556 12.144 118.556 11.6115C118.556 11.0417 118.679 10.5582 118.927 10.1612C119.179 9.75948 119.544 9.45353 120.02 9.24334C120.501 9.03315 121.085 8.92805 121.772 8.92805C121.916 8.92805 122.085 8.93739 122.276 8.95608C122.468 8.97476 122.643 8.99578 122.802 9.01913C122.927 9.03704 123.021 9.05219 123.083 9.06461C123.115 9.07101 123.147 9.07519 123.18 9.07519H125.463C125.684 9.07519 125.863 9.25427 125.863 9.47519V9.85103C125.863 10.0336 125.74 10.193 125.563 10.2384L125.176 10.338C124.911 10.4061 124.792 10.7171 124.874 10.9779C124.879 10.9952 124.885 11.0125 124.89 11.03C124.946 11.2262 124.974 11.434 124.974 11.6536C124.974 12.4943 124.679 13.1506 124.091 13.6224C123.507 14.0895 122.694 14.323 121.653 14.323C121.465 14.3124 121.285 14.2991 121.113 14.283C121.01 14.2734 120.904 14.3003 120.831 14.3746C120.781 14.4259 120.739 14.4788 120.707 14.5332C120.651 14.6266 120.623 14.7247 120.623 14.8275C120.623 14.9302 120.665 15.0166 120.749 15.0867C120.837 15.1521 120.968 15.2035 121.141 15.2409C121.319 15.2736 121.538 15.2899 121.8 15.2899H123.131C123.99 15.2899 124.644 15.4744 125.093 15.8434C125.546 16.2124 125.772 16.7542 125.772 17.4689C125.772 18.3844 125.389 19.0944 124.623 19.5989C123.862 20.1033 122.767 20.3556 121.337 20.3556ZM121.428 18.9613C121.937 18.9613 122.374 18.9122 122.739 18.8141C123.108 18.7207 123.39 18.5853 123.586 18.4078C123.782 18.2349 123.881 18.0271 123.881 17.7842C123.881 17.588 123.822 17.4315 123.705 17.3148C123.593 17.2027 123.42 17.1233 123.187 17.0765C122.958 17.0298 122.664 17.0065 122.304 17.0065H121.197C120.936 17.0065 120.7 17.0485 120.489 17.1326C120.284 17.2167 120.12 17.3334 119.999 17.4829C119.878 17.6371 119.817 17.8146 119.817 18.0154C119.817 18.3097 119.957 18.5409 120.237 18.709C120.522 18.8772 120.919 18.9613 121.428 18.9613ZM121.772 13.0198C122.173 13.0198 122.468 12.896 122.654 12.6485C122.841 12.4009 122.935 12.0646 122.935 11.6395C122.935 11.1678 122.837 10.8151 122.64 10.5816C122.449 10.3434 122.159 10.2242 121.772 10.2242C121.379 10.2242 121.085 10.3434 120.889 10.5816C120.693 10.8151 120.595 11.1678 120.595 11.6395C120.595 12.0646 120.69 12.4009 120.882 12.6485C121.078 12.896 121.375 13.0198 121.772 13.0198Z" fill="url(#paint4_linear_6_24)"/>
<path d="M131.035 8.92805C131.871 8.92805 132.543 9.15693 133.053 9.61468C133.562 10.0678 133.816 10.7964 133.816 11.8007V16.5084C133.816 16.7293 133.637 16.9084 133.416 16.9084H132.079C131.858 16.9084 131.679 16.7293 131.679 16.5084V12.3332C131.679 11.7727 131.577 11.3499 131.371 11.065C131.17 10.7801 130.853 10.6376 130.418 10.6376C129.764 10.6376 129.318 10.8595 129.08 11.3032C128.842 11.747 128.723 12.3869 128.723 13.223V16.5084C128.723 16.7293 128.544 16.9084 128.323 16.9084H126.986C126.765 16.9084 126.586 16.7293 126.586 16.5084V9.47519C126.586 9.25427 126.765 9.07519 126.986 9.07519H127.917C128.095 9.07519 128.252 9.1934 128.301 9.36494L128.487 10.0112C128.498 10.0502 128.533 10.0771 128.574 10.0771V10.0771C128.605 10.0771 128.634 10.0608 128.652 10.0344C128.815 9.78303 129.014 9.57773 129.248 9.4185C129.5 9.25035 129.778 9.12657 130.082 9.04716C130.39 8.96775 130.708 8.92805 131.035 8.92805Z" fill="url(#paint5_linear_6_24)"/>
<path d="M82.4218 9.73755C82.8161 10.027 83.3911 9.8717 83.555 9.41077L83.9722 8.23738C84.0714 7.9583 84.3355 7.77187 84.6317 7.77187H88.4678C88.8544 7.77187 89.1678 8.08527 89.1678 8.47187V18.2036C89.1678 18.5902 88.8544 18.9036 88.4678 18.9036H84.1245C83.8396 18.9036 83.5852 18.7294 83.4663 18.4706C82.6415 16.6747 81.5641 15.7503 80.0455 14.6985C78.0226 13.2974 76.5203 13.1459 74.2561 13.1459C72.3153 13.1459 70.5685 13.6634 69.0159 14.6985C67.4848 15.7336 66.2988 17.1353 65.4578 18.9036C64.6168 20.6718 64.1963 22.6019 64.1963 24.6936C64.1963 28.2517 65.1451 31.1629 67.0428 33.4272C68.9404 35.6699 71.4419 36.7912 74.5472 36.7912C79.1163 36.7912 82.4103 34.7763 84.4291 30.7465C84.6055 30.3943 85.0297 30.2354 85.3853 30.4049L89.6758 32.4503C90.0218 32.6153 90.1718 33.0283 90.001 33.3714C86.8375 39.727 81.5892 42.9048 74.2561 42.9048C70.8704 42.9048 67.8622 42.1069 65.2314 40.5111C62.6005 38.9153 60.5627 36.7265 59.1178 33.9447C57.6946 31.1629 56.983 28.0792 56.983 24.6936C56.983 21.3727 57.7054 18.3537 59.1502 15.6366C60.6166 12.9194 62.6221 10.8061 65.1667 9.29662C67.7113 7.76555 70.547 7.00001 73.6738 7.00001C77.0197 7.00001 79.9357 7.91253 82.4218 9.73755Z" fill="#373C3D"/>
<circle cx="24.8153" cy="24.9524" r="24.8153" fill="url(#paint6_linear_6_24)"/>
<path fill-rule="evenodd" clip-rule="evenodd" d="M21.8372 20.6104C21.8372 15.3309 26.117 11.0511 31.3965 11.0511C36.676 11.0511 40.9558 15.3309 40.9558 20.6104V23.9258C40.9558 24.3526 40.6098 24.6985 40.1831 24.6985H36.5017C36.0749 24.6985 35.729 24.3526 35.729 23.9258V20.6104C35.729 18.2177 33.7892 16.2779 31.3965 16.2779C29.0037 16.2779 27.064 18.2177 27.064 20.6104V28.7867C27.064 31.1794 29.0037 33.1191 31.3965 33.1191H35.0442C35.471 33.1191 35.8169 33.4651 35.8169 33.8919V37.5732C35.8169 38 35.471 38.346 35.0442 38.346H31.3965C26.117 38.346 21.8372 34.0661 21.8372 28.7867V20.6104Z" fill="#373C3D"/>
<path fill-rule="evenodd" clip-rule="evenodd" d="M21.7374 29.7089V22.8093C21.7374 20.6455 19.9833 18.8914 17.8195 18.8914C15.6557 18.8914 13.9016 20.6455 13.9016 22.8093V29.7089C13.9016 31.8727 15.6557 33.6268 17.8195 33.6268C19.9833 33.6268 21.7374 31.8727 21.7374 29.7089ZM17.8195 13.6645C12.769 13.6645 8.67474 17.7588 8.67474 22.8093V29.7089C8.67474 34.7594 12.769 38.8537 17.8195 38.8537C22.87 38.8537 26.9642 34.7594 26.9642 29.7089V22.8093C26.9642 17.7588 22.87 13.6645 17.8195 13.6645Z" fill="#373C3D"/>
<defs>
<linearGradient id="paint0_linear_6_24" x1="93.0836" y1="13.1809" x2="135.164" y2="20.3555" gradientUnits="userSpaceOnUse">
<stop stop-color="#35D5EB"/>
<stop offset="1" stop-color="#2AED9C"/>
</linearGradient>
<linearGradient id="paint1_linear_6_24" x1="93.0836" y1="13.1809" x2="135.164" y2="20.3555" gradientUnits="userSpaceOnUse">
<stop stop-color="#35D5EB"/>
<stop offset="1" stop-color="#2AED9C"/>
</linearGradient>
<linearGradient id="paint2_linear_6_24" x1="93.0836" y1="13.1809" x2="135.164" y2="20.3555" gradientUnits="userSpaceOnUse">
<stop stop-color="#35D5EB"/>
<stop offset="1" stop-color="#2AED9C"/>
</linearGradient>
<linearGradient id="paint3_linear_6_24" x1="93.0836" y1="13.1809" x2="135.164" y2="20.3555" gradientUnits="userSpaceOnUse">
<stop stop-color="#35D5EB"/>
<stop offset="1" stop-color="#2AED9C"/>
</linearGradient>
<linearGradient id="paint4_linear_6_24" x1="93.0836" y1="13.1809" x2="135.164" y2="20.3555" gradientUnits="userSpaceOnUse">
<stop stop-color="#35D5EB"/>
<stop offset="1" stop-color="#2AED9C"/>
</linearGradient>
<linearGradient id="paint5_linear_6_24" x1="93.0836" y1="13.1809" x2="135.164" y2="20.3555" gradientUnits="userSpaceOnUse">
<stop stop-color="#35D5EB"/>
<stop offset="1" stop-color="#2AED9C"/>
</linearGradient>
<linearGradient id="paint6_linear_6_24" x1="1.52906" y1="23.0052" x2="52.5183" y2="25.7574" gradientUnits="userSpaceOnUse">
<stop stop-color="#35D5EB"/>
<stop offset="1" stop-color="#2AED9C"/>
</linearGradient>
</defs>
</svg>
