<svg width="40" height="34" viewBox="0 0 40 34" fill="none" xmlns="http://www.w3.org/2000/svg">
<g clip-path="url(#clip0_58_162)">
<path d="M16.5314 15.3197C16.5314 15.3197 20.2208 15.0346 20.2208 10.5505C20.2208 6.06062 17.2022 3.87677 13.3763 3.87677H0.791046V28.9464H13.3763C13.3763 28.9464 21.0613 29.1966 21.0613 21.5454C21.0593 21.5434 21.3947 15.3197 16.5314 15.3197V15.3197ZM6.33685 8.3298H13.3763C13.3763 8.3298 15.0884 8.3298 15.0884 10.9365C15.0884 13.547 14.0822 13.9252 12.9395 13.9252H6.33685V8.3298ZM13.0195 24.4895H6.33685V17.7886H13.3763C13.3763 17.7886 15.9269 17.7537 15.9269 21.2312C15.9269 24.1637 14.0218 24.4682 13.0195 24.4895V24.4895ZM31.3066 10.2518C22.0031 10.2518 22.0109 19.8852 22.0109 19.8852C22.0109 19.8852 21.3752 29.4681 31.3066 29.4681C31.3066 29.4681 39.5804 29.9608 39.5804 22.8022H35.3255C35.3255 22.8022 35.4659 25.5 31.4489 25.5C31.4489 25.5 27.1901 25.7948 27.1901 21.1361H39.715C39.7169 21.1342 41.0975 10.2518 31.3066 10.2518V10.2518ZM35.0915 17.7886H27.1472C27.1472 17.7886 27.6659 13.9252 31.4021 13.9252C35.1383 13.9252 35.0915 17.7886 35.0915 17.7886V17.7886ZM36.0802 5.34883H26.102V8.44035H36.0802V5.34883Z" fill="#B3BBBC"/>
</g>
<defs>
<clipPath id="clip0_58_162">
<rect width="39" height="33" fill="white" transform="translate(0.5 0.464844)"/>
</clipPath>
</defs>
</svg>
