<svg width="1204" height="245" viewBox="0 0 1204 245" fill="none" xmlns="http://www.w3.org/2000/svg">
<g clip-path="url(#clip0_58_221)">
<g opacity="0.4">
<path d="M-24.5211 223.213C227.344 -62.9294 848.41 -81.4756 1174.11 211.291" stroke="url(#paint0_linear_58_221)" stroke-linecap="round"/>
<path d="M-15.9999 104.398C232.284 -29.425 844.519 -38.0987 1165.59 98.8221" stroke="url(#paint1_linear_58_221)" stroke-linecap="round"/>
<path d="M141.244 223.213C323.446 -62.9294 772.731 -81.4756 1008.35 211.291" stroke="url(#paint2_linear_58_221)" stroke-linecap="round"/>
<path d="M316.093 223.213C424.814 -62.9294 692.905 -81.4756 833.5 211.291" stroke="url(#paint3_linear_58_221)" stroke-linecap="round"/>
<path d="M470.823 223.213C514.518 -62.9294 622.265 -81.4756 678.77 211.291" stroke="url(#paint4_linear_58_221)" stroke-linecap="round"/>
</g>
<path d="M297.07 84.64L294.827 86.858C293.174 88.4791 291.03 90.5649 288.392 93.1154C287.599 93.8819 286.54 94.3104 285.437 94.3104C284.335 94.3104 283.275 93.8819 282.482 93.1154L275.887 86.6993C275.057 85.885 274.364 85.1992 273.805 84.64C271.504 82.3393 269.938 79.4082 269.303 76.2172C268.668 73.0262 268.994 69.7187 270.239 66.7128C271.484 63.707 273.593 61.1379 276.298 59.3304C279.003 57.5229 282.184 56.5581 285.437 56.5581C288.691 56.5581 291.871 57.5229 294.576 59.3304C297.282 61.1379 299.39 63.707 300.635 66.7128C301.88 69.7187 302.206 73.0262 301.572 76.2172C300.937 79.4082 299.37 82.3393 297.07 84.64V84.64ZM290.161 73.5271C290.161 72.2744 289.663 71.073 288.777 70.1872C287.891 69.3014 286.69 68.8038 285.437 68.8038C284.185 68.8038 282.983 69.3014 282.097 70.1872C281.212 71.073 280.714 72.2744 280.714 73.5271C280.714 74.7798 281.212 75.9811 282.097 76.8669C282.983 77.7527 284.185 78.2503 285.437 78.2503C286.69 78.2503 287.891 77.7527 288.777 76.8669C289.663 75.9811 290.161 74.7798 290.161 73.5271V73.5271Z" fill="#31E4A4"/>
<path d="M169.515 51.1653L167.834 52.8282C166.594 54.0435 164.987 55.6073 163.009 57.5195C162.415 58.0942 161.621 58.4154 160.794 58.4154C159.967 58.4154 159.173 58.0942 158.579 57.5195L153.634 52.7092C153.012 52.0987 152.492 51.5846 152.073 51.1653C150.348 49.4404 149.174 47.2429 148.698 44.8505C148.222 42.4582 148.466 39.9784 149.4 37.7249C150.333 35.4714 151.914 33.5453 153.942 32.1901C155.97 30.835 158.355 30.1117 160.794 30.1117C163.233 30.1117 165.618 30.835 167.646 32.1901C169.674 33.5453 171.255 35.4714 172.188 37.7249C173.122 39.9784 173.366 42.4582 172.89 44.8505C172.414 47.2429 171.24 49.4404 169.515 51.1653V51.1653ZM164.335 42.8337C164.335 41.8945 163.962 40.9938 163.298 40.3297C162.634 39.6656 161.733 39.2925 160.794 39.2925C159.855 39.2925 158.954 39.6656 158.29 40.3297C157.626 40.9938 157.253 41.8945 157.253 42.8337C157.253 43.7729 157.626 44.6736 158.29 45.3377C158.954 46.0017 159.855 46.3748 160.794 46.3748C161.733 46.3748 162.634 46.0017 163.298 45.3377C163.962 44.6736 164.335 43.7729 164.335 42.8337V42.8337Z" fill="#31E4A4"/>
<path d="M400.29 47.1115L399.109 48.2797C398.238 49.1334 397.109 50.2319 395.72 51.5751C395.302 51.9788 394.744 52.2044 394.164 52.2044C393.583 52.2044 393.025 51.9788 392.607 51.5751L389.134 48.1961C388.697 47.7672 388.332 47.406 388.037 47.1115C386.826 45.8999 386.001 44.3562 385.666 42.6757C385.332 40.9951 385.504 39.2532 386.16 37.6702C386.815 36.0872 387.926 34.7342 389.35 33.7822C390.775 32.8303 392.45 32.3222 394.164 32.3222C395.877 32.3222 397.552 32.8303 398.977 33.7822C400.401 34.7342 401.512 36.0872 402.167 37.6702C402.823 39.2532 402.995 40.9951 402.661 42.6757C402.326 44.3562 401.501 45.8999 400.29 47.1115V47.1115ZM396.651 41.2589C396.651 40.5992 396.389 39.9665 395.922 39.5C395.456 39.0335 394.823 38.7714 394.164 38.7714C393.504 38.7714 392.871 39.0335 392.405 39.5C391.938 39.9665 391.676 40.5992 391.676 41.2589C391.676 41.9186 391.938 42.5513 392.405 43.0178C392.871 43.4843 393.504 43.7464 394.164 43.7464C394.823 43.7464 395.456 43.4843 395.922 43.0178C396.389 42.5513 396.651 41.9186 396.651 41.2589V41.2589Z" fill="#95CFBB"/>
<path d="M784.09 68.3632L782.451 69.9851C781.242 71.1704 779.674 72.6955 777.745 74.5605C777.166 75.1209 776.391 75.4342 775.585 75.4342C774.778 75.4342 774.004 75.1209 773.424 74.5605L768.601 69.869C767.995 69.2736 767.488 68.7721 767.079 68.3632C765.397 66.681 764.251 64.5377 763.787 62.2044C763.323 59.8711 763.562 57.4526 764.472 55.2548C765.382 53.0569 766.924 51.1784 768.902 49.8567C770.88 48.535 773.206 47.8296 775.585 47.8296C777.964 47.8296 780.289 48.535 782.267 49.8567C784.245 51.1784 785.787 53.0569 786.698 55.2548C787.608 57.4526 787.846 59.8711 787.382 62.2044C786.918 64.5377 785.773 66.681 784.09 68.3632V68.3632ZM779.038 60.2374C779.038 59.3214 778.675 58.4429 778.027 57.7953C777.379 57.1476 776.501 56.7837 775.585 56.7837C774.669 56.7837 773.79 57.1476 773.143 57.7953C772.495 58.4429 772.131 59.3214 772.131 60.2374C772.131 61.1533 772.495 62.0318 773.143 62.6795C773.79 63.3272 774.669 63.6911 775.585 63.6911C776.501 63.6911 777.379 63.3272 778.027 62.6795C778.675 62.0318 779.038 61.1533 779.038 60.2374V60.2374Z" fill="#35DAD6"/>
<path d="M847.465 148.402L844.772 151.065C842.788 153.011 840.213 155.515 837.047 158.577C836.095 159.497 834.823 160.011 833.5 160.011C832.176 160.011 830.904 159.497 829.952 158.577L822.034 150.874C821.038 149.896 820.206 149.073 819.534 148.402C816.773 145.64 814.892 142.121 814.13 138.29C813.368 134.459 813.759 130.488 815.254 126.88C816.749 123.271 819.28 120.187 822.528 118.017C825.775 115.847 829.594 114.689 833.5 114.689C837.405 114.689 841.224 115.847 844.471 118.017C847.719 120.187 850.25 123.271 851.745 126.88C853.24 130.488 853.631 134.459 852.869 138.29C852.107 142.121 850.226 145.64 847.465 148.402V148.402ZM839.17 135.06C839.17 133.556 838.573 132.114 837.509 131.051C836.446 129.987 835.003 129.39 833.5 129.39C831.996 129.39 830.553 129.987 829.49 131.051C828.427 132.114 827.829 133.556 827.829 135.06C827.829 136.564 828.427 138.007 829.49 139.07C830.553 140.133 831.996 140.731 833.5 140.731C835.003 140.731 836.446 140.133 837.509 139.07C838.573 138.007 839.17 136.564 839.17 135.06V135.06Z" fill="#35D5EB" fill-opacity="0.28"/>
<path d="M1017.66 74.68L1015.86 76.4553C1014.54 77.7527 1012.83 79.422 1010.71 81.4634C1010.08 82.0768 1009.23 82.4198 1008.35 82.4198C1007.47 82.4198 1006.62 82.0768 1005.98 81.4634L1000.71 76.3282C1000.04 75.6765 999.487 75.1276 999.04 74.68C997.198 72.8387 995.945 70.4927 995.437 67.9388C994.929 65.3849 995.189 62.7377 996.186 60.332C997.183 57.9262 998.87 55.8701 1001.04 54.4234C1003.2 52.9767 1005.75 52.2046 1008.35 52.2046C1010.95 52.2046 1013.5 52.9767 1015.66 54.4234C1017.83 55.8701 1019.52 57.9262 1020.51 60.332C1021.51 62.7377 1021.77 65.3849 1021.26 67.9388C1020.75 70.4927 1019.5 72.8387 1017.66 74.68V74.68ZM1012.13 65.7858C1012.13 64.7832 1011.73 63.8216 1011.02 63.1127C1010.31 62.4037 1009.35 62.0055 1008.35 62.0055C1007.35 62.0055 1006.39 62.4037 1005.68 63.1127C1004.97 63.8216 1004.57 64.7832 1004.57 65.7858C1004.57 66.7884 1004.97 67.7499 1005.68 68.4588C1006.39 69.1678 1007.35 69.5661 1008.35 69.5661C1009.35 69.5661 1010.31 69.1678 1011.02 68.4588C1011.73 67.7499 1012.13 66.7884 1012.13 65.7858V65.7858Z" fill="#37E7FA" fill-opacity="0.51"/>
<path d="M1191.2 72.8244C1140.36 61.2896 1058.39 24.4474 940.03 50.2837C826.272 75.1164 788.764 148.624 639.423 177.018C517.429 200.211 411.779 139.077 272.624 148.624C172.102 155.521 89.5911 229.29 50.3341 236.696C11.0771 244.102 5.00001 225.853 5.00001 225.853" stroke="url(#paint5_linear_58_221)" stroke-width="4" stroke-linecap="round"/>
<circle cx="116.315" cy="203.431" r="8.49423" fill="#32E5A5" stroke="white" stroke-width="4"/>
<circle cx="262.68" cy="147.033" r="8.49423" fill="#32E5A5" stroke="white" stroke-width="4"/>
<circle cx="461.057" cy="168.022" r="8.49423" fill="#66E8CC" stroke="white" stroke-width="4"/>
<circle cx="679.864" cy="168.022" r="8.49423" fill="#34DCCD" stroke="white" stroke-width="4"/>
<circle cx="865.484" cy="76.221" r="8.49423" fill="#35D9DD" stroke="white" stroke-width="4"/>
<circle cx="1085.7" cy="46.7293" r="8.49423" fill="#36D6EC" stroke="white" stroke-width="4"/>
</g>
<defs>
<linearGradient id="paint0_linear_58_221" x1="574.797" y1="0.0108643" x2="574.797" y2="223.213" gradientUnits="userSpaceOnUse">
<stop stop-color="#B4C6C8"/>
<stop offset="1" stop-color="#B4C6C8" stop-opacity="0"/>
</linearGradient>
<linearGradient id="paint1_linear_58_221" x1="574.797" y1="0.0108643" x2="574.797" y2="104.398" gradientUnits="userSpaceOnUse">
<stop stop-color="#B4C6C8"/>
<stop offset="1" stop-color="#B4C6C8" stop-opacity="0"/>
</linearGradient>
<linearGradient id="paint2_linear_58_221" x1="574.797" y1="0.0108643" x2="574.797" y2="223.213" gradientUnits="userSpaceOnUse">
<stop stop-color="#B4C6C8"/>
<stop offset="1" stop-color="#B4C6C8" stop-opacity="0"/>
</linearGradient>
<linearGradient id="paint3_linear_58_221" x1="574.796" y1="0.0108643" x2="574.796" y2="223.213" gradientUnits="userSpaceOnUse">
<stop stop-color="#B4C6C8"/>
<stop offset="1" stop-color="#B4C6C8" stop-opacity="0"/>
</linearGradient>
<linearGradient id="paint4_linear_58_221" x1="574.797" y1="0.0108643" x2="574.797" y2="223.213" gradientUnits="userSpaceOnUse">
<stop stop-color="#B4C6C8"/>
<stop offset="1" stop-color="#B4C6C8" stop-opacity="0"/>
</linearGradient>
<linearGradient id="paint5_linear_58_221" x1="157.414" y1="188.612" x2="1077.31" y2="50.3307" gradientUnits="userSpaceOnUse">
<stop stop-color="#31E4A4"/>
<stop offset="1" stop-color="#35D5EB"/>
</linearGradient>
<clipPath id="clip0_58_221">
<rect width="1204" height="245" fill="white"/>
</clipPath>
</defs>
</svg>
