<svg width="51" height="51" viewBox="0 0 51 51" fill="none" xmlns="http://www.w3.org/2000/svg">
<circle cx="25.6261" cy="25.7484" r="24.8153" fill="url(#paint0_linear_101_18)"/>
<path fill-rule="evenodd" clip-rule="evenodd" d="M22.648 21.4065C22.648 16.127 26.9278 11.8472 32.2073 11.8472C37.4868 11.8472 41.7666 16.127 41.7666 21.4065V24.7219C41.7666 25.1486 41.4207 25.4946 40.9939 25.4946H37.3125C36.8857 25.4946 36.5398 25.1486 36.5398 24.7219V21.4065C36.5398 19.0137 34.6001 17.074 32.2073 17.074C29.8146 17.074 27.8748 19.0137 27.8748 21.4065V29.5827C27.8748 31.9755 29.8146 33.9152 32.2073 33.9152H35.855C36.2818 33.9152 36.6278 34.2612 36.6278 34.688V38.3693C36.6278 38.7961 36.2818 39.1421 35.855 39.1421H32.2073C26.9278 39.1421 22.648 34.8622 22.648 29.5827V21.4065Z" fill="#373C3D"/>
<path fill-rule="evenodd" clip-rule="evenodd" d="M22.5482 30.505V23.6053C22.5482 21.4416 20.7941 19.6875 18.6303 19.6875C16.4665 19.6875 14.7124 21.4416 14.7124 23.6053V30.505C14.7124 32.6688 16.4665 34.4229 18.6303 34.4229C20.7941 34.4229 22.5482 32.6688 22.5482 30.505ZM18.6303 14.4606C13.5798 14.4606 9.48557 18.5548 9.48557 23.6053V30.505C9.48557 35.5555 13.5798 39.6497 18.6303 39.6497C23.6808 39.6497 27.7751 35.5555 27.7751 30.505V23.6053C27.7751 18.5548 23.6808 14.4606 18.6303 14.4606Z" fill="#373C3D"/>
<defs>
<linearGradient id="paint0_linear_101_18" x1="2.33985" y1="23.8012" x2="53.3291" y2="26.5534" gradientUnits="userSpaceOnUse">
<stop stop-color="#35D5EB"/>
<stop offset="1" stop-color="#2AED9C"/>
</linearGradient>
</defs>
</svg>
