<svg width="73" height="100" viewBox="0 0 73 100" fill="none" xmlns="http://www.w3.org/2000/svg">
<circle cx="36.5882" cy="49.7316" r="27.366" transform="rotate(9.63016 36.5882 49.7316)" fill="#2FFF9B" fill-opacity="0.47"/>
<path d="M61.6318 24.8031C56.6202 19.7598 50.0431 16.1766 42.499 14.8965C34.9549 13.6165 27.5639 14.8296 21.1693 17.9374M54.2251 80.349C47.3524 84.3131 39.1106 85.9976 30.6775 84.5666C22.2443 83.1357 15.0195 78.8268 9.83903 72.8177" stroke="#1FDA80" stroke-opacity="0.28" stroke-width="5" stroke-linecap="round"/>
<path d="M68.6475 17.8196C62.2319 11.3635 53.8124 6.77654 44.1548 5.13786C34.4973 3.49918 25.0359 5.05214 16.8498 9.03064M59.1658 88.9261C50.3678 94.0006 39.8173 96.157 29.0216 94.3252C18.226 92.4934 8.97726 86.9775 2.34556 79.2849" stroke="#1FDA80" stroke-opacity="0.28" stroke-width="4" stroke-linecap="round"/>
<circle cx="36.5883" cy="49.7316" r="19.3235" transform="rotate(9.63016 36.5883 49.7316)" fill="#0CFF8A" fill-opacity="0.69"/>
</svg>
