<svg width="143" height="46" viewBox="0 0 143 46" fill="none" xmlns="http://www.w3.org/2000/svg">
<g clip-path="url(#clip0_58_179)">
<path d="M22.5918 0.464844C10.3912 0.464844 0.5 10.4951 0.5 22.8675C0.5 35.2406 10.3912 45.2699 22.5918 45.2699C34.7938 45.2699 44.6839 35.2406 44.6839 22.8675C44.6839 10.4959 34.7938 0.465969 22.5915 0.465969L22.5918 0.464844ZM32.7232 32.776C32.6289 32.9326 32.5051 33.0689 32.3588 33.177C32.2125 33.2851 32.0467 33.3628 31.8707 33.4058C31.6948 33.4488 31.5122 33.4562 31.3334 33.4276C31.1547 33.3989 30.9832 33.3348 30.8289 33.2389C25.642 30.0259 19.1123 29.2983 11.4224 31.08C11.0663 31.1622 10.6926 31.0976 10.3835 30.9004C10.0744 30.7033 9.85508 30.3897 9.77382 30.0287C9.73332 29.85 9.728 29.6649 9.75815 29.484C9.7883 29.3032 9.85334 29.1301 9.94954 28.9748C10.0457 28.8195 10.1712 28.685 10.3188 28.5789C10.4663 28.4728 10.633 28.3973 10.8094 28.3567C19.2249 26.4068 26.4433 27.2463 32.2667 30.8553C32.4211 30.951 32.5554 31.0766 32.6619 31.225C32.7684 31.3733 32.845 31.5415 32.8874 31.7199C32.9298 31.8983 32.9371 32.0834 32.9088 32.2647C32.8806 32.4459 32.8174 32.6198 32.7229 32.7763L32.7232 32.776ZM35.4273 26.6759C34.9283 27.4977 33.8681 27.7573 33.0579 27.2517C27.12 23.5504 18.0678 22.4783 11.0441 24.6405C10.6068 24.7747 10.135 24.7276 9.73202 24.5094C9.32906 24.2912 9.02791 23.9198 8.89464 23.4767C8.76285 23.0334 8.80972 22.5552 9.025 22.1469C9.24028 21.7386 9.6064 21.4335 10.0431 21.2984C18.0664 18.8296 28.0405 20.0255 34.8598 24.2749C35.6697 24.7806 35.9257 25.8561 35.427 26.6762L35.4273 26.6759ZM35.6591 20.3239C28.5395 16.0354 16.7917 15.6411 9.99375 17.7336C8.90213 18.0694 7.74782 17.4445 7.41723 16.3375C7.25819 15.8057 7.31389 15.2316 7.57211 14.7414C7.83033 14.2512 8.26992 13.8851 8.79424 13.7235C16.5979 11.3211 29.5706 11.7852 37.7681 16.7203C38.0017 16.8604 38.2058 17.0459 38.3686 17.2662C38.5314 17.4864 38.6498 17.7371 38.7169 18.0038C38.784 18.2705 38.7986 18.5481 38.7598 18.8205C38.721 19.093 38.6296 19.355 38.4908 19.5915C37.9106 20.5872 36.639 20.9154 35.6603 20.3242H35.6591V20.3239ZM60.6045 21.1457C56.79 20.2232 56.1121 19.5761 56.1121 18.2157C56.1121 16.9303 57.3044 16.0655 59.0797 16.0655C60.7998 16.0655 62.5041 16.7225 64.2927 18.0745C64.3454 18.1152 64.4139 18.1316 64.4799 18.1209C64.5131 18.1161 64.545 18.1044 64.5736 18.0867C64.6022 18.0689 64.6269 18.0454 64.6463 18.0177L66.5086 15.3553C66.5455 15.3026 66.561 15.2376 66.5522 15.1736C66.5434 15.1095 66.5109 15.0513 66.4612 15.0108C64.3323 13.2792 61.9369 12.4374 59.1352 12.4374C55.0172 12.4374 52.1392 14.9436 52.1392 18.5298C52.1392 22.3753 54.6214 23.7372 58.9111 24.7882C62.5595 25.6407 63.1766 26.3548 63.1766 27.6316C63.1766 29.0469 61.9314 29.9269 59.9267 29.9269C57.7002 29.9269 55.8825 29.1647 53.8512 27.3827C53.8006 27.3394 53.7354 27.3174 53.6693 27.3214C53.6363 27.3237 53.6041 27.3326 53.5746 27.3478C53.5452 27.3629 53.519 27.3839 53.4976 27.4094L51.4084 29.9294C51.3664 29.98 51.3455 30.045 51.3499 30.111C51.3544 30.1769 51.3839 30.2384 51.4322 30.2827C53.7958 32.423 56.7029 33.5519 59.8421 33.5519C64.2796 33.5519 67.1471 31.0932 67.1471 27.2865C67.1549 24.0744 65.2584 22.2955 60.6126 21.1494L60.6045 21.1457V21.1457ZM77.1875 17.3308C75.2644 17.3308 73.6869 18.0992 72.3836 19.6737V17.9018C72.3836 17.7617 72.2727 17.6478 72.1357 17.6478H68.7194C68.6533 17.6482 68.5901 17.6751 68.5437 17.7227C68.4972 17.7702 68.4712 17.8345 68.4714 17.9015V37.5915C68.4714 37.7305 68.5823 37.8455 68.7194 37.8455H72.1357C72.2017 37.845 72.2649 37.818 72.3113 37.7704C72.3578 37.7228 72.3838 37.6585 72.3836 37.5915V31.3767C73.6869 32.8561 75.2644 33.5812 77.1872 33.5812C80.7622 33.5812 84.3815 30.7912 84.3815 25.457C84.3868 20.1217 80.7672 17.3306 77.19 17.3306L77.1872 17.3308H77.1875ZM80.4086 25.457C80.4086 28.1719 78.7598 30.0687 76.396 30.0687C74.0613 30.0687 72.299 28.0864 72.299 25.457C72.299 22.8273 74.0613 20.8453 76.396 20.8453C78.7201 20.8453 80.4086 22.784 80.4086 25.4567V25.457ZM93.6542 17.3308C89.0509 17.3308 85.4446 20.9252 85.4446 25.5152C85.4446 30.0554 89.027 33.6107 93.5987 33.6107C98.2179 33.6107 101.835 30.0287 101.835 25.457C101.835 20.9007 98.2418 17.3317 93.6542 17.3317V17.3308V17.3308ZM93.6542 30.0954C91.2061 30.0954 89.3595 28.0996 89.3595 25.4556C89.3595 22.7995 91.1429 20.8718 93.5987 20.8718C96.0627 20.8718 97.9198 22.8667 97.9198 25.5135C97.9198 28.1694 96.1259 30.0954 93.6542 30.0954ZM111.664 17.6478H107.905V13.7511C107.905 13.6113 107.794 13.4974 107.657 13.4974H104.24C104.174 13.4976 104.11 13.5243 104.063 13.5718C104.017 13.6194 103.99 13.6838 103.99 13.7511V17.6478H102.349C102.283 17.6482 102.22 17.6751 102.173 17.7227C102.127 17.7702 102.101 17.8345 102.101 17.9015V20.8783C102.101 20.9452 102.127 21.0096 102.173 21.0572C102.22 21.1048 102.283 21.1318 102.349 21.1322H103.99V28.8357C103.99 31.9468 105.517 33.5252 108.533 33.5252C109.757 33.5252 110.772 33.2682 111.73 32.7172C111.769 32.6957 111.801 32.6639 111.823 32.6253C111.845 32.5866 111.857 32.5426 111.857 32.4978V29.662C111.856 29.619 111.845 29.5769 111.825 29.5395C111.804 29.502 111.774 29.4706 111.738 29.4482C111.702 29.4248 111.661 29.4115 111.618 29.4096C111.575 29.4076 111.533 29.4172 111.495 29.4373C110.838 29.7719 110.202 29.9269 109.49 29.9269C108.395 29.9269 107.905 29.4212 107.905 28.2923V21.1339H111.664C111.73 21.1335 111.793 21.1066 111.84 21.059C111.886 21.0113 111.912 20.9469 111.912 20.8799V17.9032C111.913 17.87 111.907 17.8369 111.896 17.8059C111.884 17.7749 111.866 17.7467 111.843 17.723C111.82 17.6992 111.792 17.6804 111.762 17.6678C111.732 17.6551 111.699 17.6488 111.667 17.6492L111.664 17.6478H111.664ZM124.759 17.663V17.1843C124.759 15.7764 125.292 15.1486 126.485 15.1486C127.197 15.1486 127.769 15.2921 128.411 15.5086C128.448 15.5214 128.488 15.5249 128.527 15.5188C128.567 15.5127 128.604 15.4972 128.636 15.4736C128.668 15.45 128.694 15.4189 128.712 15.383C128.729 15.3472 128.738 15.3075 128.738 15.2673L128.738 12.3488C128.738 12.2943 128.721 12.241 128.69 12.1971C128.658 12.1532 128.613 12.121 128.561 12.1055C127.886 11.9013 127.02 11.6921 125.722 11.6921C122.57 11.6921 120.9 13.4935 120.9 16.8997V17.6326H119.259C119.193 17.6328 119.129 17.6595 119.082 17.7071C119.035 17.7546 119.009 17.819 119.008 17.8863V20.8783C119.008 21.018 119.122 21.1322 119.259 21.1322H120.9V33.0114C120.9 33.1531 121.014 33.2656 121.151 33.2656H124.564C124.704 33.2656 124.815 33.1531 124.815 33.0114V21.1331H128.004L132.89 33.0114C132.336 34.2582 131.79 34.5068 131.046 34.5068C130.444 34.5068 129.809 34.3251 129.163 33.964C129.101 33.9325 129.031 33.9258 128.965 33.9451C128.932 33.9562 128.902 33.9741 128.876 33.9976C128.851 34.0211 128.831 34.0497 128.817 34.0815L127.659 36.6578C127.632 36.7163 127.628 36.7829 127.649 36.8441C127.669 36.9052 127.711 36.9563 127.767 36.9868C128.975 37.6503 130.064 37.9338 131.413 37.9338C133.935 37.9338 135.33 36.7407 136.557 33.5359L142.482 18.0098C142.497 17.9714 142.503 17.9297 142.498 17.8885C142.494 17.8473 142.479 17.808 142.456 17.7741C142.433 17.7401 142.403 17.7123 142.368 17.693C142.332 17.6738 142.293 17.6638 142.252 17.6638H138.696C138.644 17.6636 138.593 17.6798 138.551 17.7103C138.508 17.7408 138.476 17.7841 138.459 17.834L134.816 28.3834L130.827 17.827C130.809 17.7791 130.777 17.7379 130.736 17.7088C130.694 17.6797 130.645 17.664 130.595 17.6638H124.759V17.663V17.663ZM117.167 17.6478H113.751C113.685 17.6481 113.621 17.6749 113.574 17.7224C113.527 17.7699 113.501 17.8343 113.5 17.9015V33.0114C113.5 33.1531 113.614 33.2656 113.751 33.2656H117.167C117.304 33.2656 117.418 33.1531 117.418 33.0114V17.9026C117.418 17.8692 117.412 17.8361 117.399 17.8052C117.386 17.7744 117.368 17.7463 117.345 17.7227C117.321 17.6991 117.294 17.6804 117.263 17.6677C117.233 17.655 117.2 17.6485 117.167 17.6487V17.6478ZM115.479 10.7673C114.125 10.7673 113.028 11.8782 113.028 13.2502C113.028 13.5765 113.091 13.8997 113.215 14.2012C113.338 14.5028 113.518 14.7767 113.746 15.0075C113.973 15.2383 114.243 15.4213 114.541 15.5462C114.838 15.6711 115.157 15.7353 115.479 15.7353C116.832 15.7353 117.927 14.6232 117.927 13.2502C117.927 12.5918 117.669 11.9604 117.21 11.4948C116.751 11.0292 116.128 10.7675 115.479 10.7673Z" fill="#B3BBBC"/>
</g>
<defs>
<clipPath id="clip0_58_179">
<rect width="142" height="45" fill="white" transform="translate(0.5 0.464844)"/>
</clipPath>
</defs>
</svg>
