<svg width="166" height="26" viewBox="0 0 166 26" fill="none" xmlns="http://www.w3.org/2000/svg">
<g clip-path="url(#clip0_58_166)">
<path d="M157.156 11.3642V14.7424H159.574V18.0946C159.58 18.3509 159.569 18.6253 159.533 18.861L159.512 18.9753C159.508 19.0017 159.503 19.028 159.498 19.0541L159.478 19.1364C159.475 19.1505 159.47 19.1647 159.466 19.1788L159.438 19.2658C159.221 19.8829 158.566 20.6652 157.095 20.6652C155.529 20.6652 154.9 19.7674 154.728 19.1367L154.708 19.0541L154.692 18.9753C154.649 18.7171 154.631 18.394 154.631 18.0946V7.50788C154.631 7.17497 154.651 6.81421 154.712 6.52054L154.754 6.34174L154.763 6.30377L154.786 6.22529L154.799 6.18446L154.829 6.10029C155.053 5.51548 155.644 4.73636 157.082 4.73636C158.193 4.73636 158.79 5.18067 159.11 5.63984L159.167 5.72592C159.185 5.7544 159.201 5.7832 159.217 5.812L159.262 5.89681L159.301 5.98035L159.335 6.06168L159.364 6.13984L159.389 6.21516L159.41 6.28605L159.427 6.3525L159.44 6.41326C159.447 6.44364 159.452 6.47592 159.458 6.50946L159.471 6.61294L159.478 6.66674L159.492 6.8294L159.502 6.9851L159.51 7.19775L159.512 7.30693V8.59238H165.453L165.454 7.79206L165.458 7.50598L165.456 7.28415L165.451 7.0256L165.447 6.88668L165.436 6.66991L165.421 6.44776L165.408 6.29934C165.006 2.38889 162.012 0.884148 158.37 0.622439L158.126 0.606616L157.881 0.594907C157.757 0.589792 157.633 0.585994 157.509 0.583515L157.26 0.58035C157.218 0.579717 157.176 0.579717 157.134 0.579717L156.884 0.581299L156.76 0.583515L156.511 0.59016L156.265 0.600603L156.021 0.614527L155.778 0.631932C155.698 0.638578 155.618 0.64554 155.538 0.653451L155.3 0.678768C155.26 0.683198 155.221 0.687629 155.182 0.692692L154.947 0.723705C154.403 0.800603 153.879 0.910413 153.383 1.05693L153.172 1.12212C150.87 1.86358 149.198 3.44016 148.854 6.29934L148.819 6.61674L148.795 6.86263L148.772 7.12022L148.753 7.37655C148.743 7.54427 148.735 7.70187 148.735 7.83225L148.736 17.6955L148.738 17.818L148.743 18.0041L148.749 18.1345L148.757 18.2737L148.768 18.4253L148.781 18.5921L148.807 18.8785L148.83 19.0981C149.163 22.7322 151.968 24.3487 155.4 24.73L155.64 24.7547C156.043 24.7927 156.453 24.8136 156.868 24.8199L157.118 24.8215L157.369 24.8199C157.781 24.8143 158.192 24.7926 158.603 24.7547L158.844 24.73C162.287 24.3487 165.074 22.7322 165.413 19.0981L165.44 18.7778L165.461 18.5066L165.479 18.2028L165.49 17.9411L165.5 17.5709V11.3639H157.156L157.156 11.3642ZM116.195 1.20282H110.23V18.3383C110.239 18.637 110.23 18.9724 110.177 19.2183L110.16 19.293L110.138 19.3721C110.13 19.4001 110.121 19.428 110.112 19.4557L110.081 19.5427C109.855 20.1319 109.282 20.9006 107.91 20.9006C106.624 20.9006 106.037 20.2069 105.791 19.6322L105.755 19.5427C105.75 19.5282 105.744 19.5136 105.739 19.499L105.711 19.4136L105.688 19.3319C105.684 19.319 105.681 19.306 105.678 19.293L105.661 19.2183C105.602 18.9724 105.594 18.637 105.602 18.3386V1.20219H99.6379V17.8066L99.6366 17.9398L99.6389 18.1734L99.6473 18.5167L99.6634 18.9345L99.675 19.1443L99.6827 19.256L99.6901 19.3379C99.9824 22.4098 101.818 24.0088 104.41 24.6778L104.63 24.7322C105.13 24.8473 105.636 24.9309 106.146 24.9826L106.391 25.006L106.638 25.0256L106.888 25.0414C107.013 25.0487 107.14 25.0541 107.267 25.0585L107.523 25.0655L107.781 25.0686C107.824 25.0693 107.867 25.0693 107.91 25.0693L108.17 25.0677L108.299 25.0655L108.555 25.0585C108.683 25.0544 108.81 25.0487 108.936 25.0417L109.185 25.0259L109.433 25.006L109.678 24.9826C113.167 24.6186 115.784 23.0588 116.145 19.3379L116.15 19.3009L116.159 19.2035L116.174 19.0091L116.187 18.7737L116.194 18.6038L116.201 18.343L116.203 18.1734L116.202 18.0142L116.199 17.8705L116.195 17.8066V1.20282ZM61.3821 1.20282L58.4063 19.3088L55.4321 1.20282H45.8093L45.2988 24.3655H51.1943L51.3538 2.92307L55.4102 24.3655H61.3914L65.4513 2.92307L65.6115 24.3655H71.5219L70.9943 1.20282H61.3821V1.20282ZM25.7534 1.20282L21.3841 24.3655H27.7556L31.0485 2.92307L34.2622 24.3655H40.5895L36.2383 1.20282H25.7534V1.20282ZM137.044 19.8516L131.489 1.20282H122.736V24.124H128.526L128.19 4.87877L134.156 24.124H142.551V1.20282H136.723L137.044 19.8516V19.8516ZM83.4824 7.23098C83.3777 6.77339 83.408 6.28763 83.4621 6.03351C83.4776 5.96611 83.4956 5.89807 83.5169 5.83035L83.5517 5.72877C83.787 5.08636 84.3377 4.4832 85.6 4.4832C86.9623 4.4832 87.7611 5.31738 87.7611 6.56864V7.9851H93.5764V6.37086C93.5764 2.7275 91.1482 1.32592 88.5536 0.83478L88.3399 0.796489L88.126 0.761996L87.9116 0.731299L87.6977 0.704401L87.4837 0.680667L87.2707 0.660413C87.1998 0.654084 87.1289 0.648388 87.0583 0.643325L86.8475 0.629084L86.6381 0.617692L86.4302 0.608831L86.2243 0.602502L86.0212 0.598072L85.7209 0.595856L85.5888 0.596489L85.3255 0.600287C85.2816 0.60092 85.2385 0.602186 85.1946 0.603451L84.9349 0.612945C84.8488 0.616426 84.7631 0.620856 84.6777 0.625603L84.4231 0.643008C80.875 0.909464 78.1067 2.34048 77.5527 5.69617C77.389 6.71832 77.3484 7.62529 77.6091 8.78288C78.0197 10.6851 79.6336 12.0389 81.486 13.174L81.7728 13.3471L81.9172 13.4326L82.2082 13.6006L82.5008 13.7664L82.7947 13.9294L83.2356 14.1699L84.3938 14.7933L84.6755 14.9465L84.952 15.099L85.223 15.2516L85.4876 15.4041C86.7502 16.1421 87.7618 16.8902 88.1256 17.7848C88.3271 18.3164 88.2832 18.986 88.1859 19.4136L88.1691 19.4826C88.1449 19.5866 88.114 19.689 88.0766 19.7892L88.036 19.8895C87.7679 20.5041 87.1824 21.0281 85.8956 21.0281C84.428 21.0281 83.5443 20.1997 83.5443 18.9506L83.5424 16.7278H77.283V18.4949C77.283 22.6421 79.9627 24.4436 83.3187 24.9785L83.5685 25.0158C83.7357 25.0392 83.9046 25.0595 84.0744 25.0769L84.3306 25.1009C84.6307 25.1262 84.9342 25.1433 85.2398 25.1522L85.5024 25.1579L85.6342 25.1591L85.766 25.1598C85.8537 25.1598 85.9413 25.1591 86.0283 25.1579L86.2887 25.1522L86.4176 25.1481L86.6751 25.1367C86.7602 25.1326 86.8453 25.1272 86.9297 25.1218L87.182 25.1028C87.3479 25.0888 87.5134 25.0719 87.6787 25.0522L87.9229 25.0212L88.1643 24.9857C88.2442 24.9731 88.3235 24.9604 88.4025 24.9462L88.6377 24.9025C91.4785 24.3436 93.5922 22.8281 94.0163 19.9142C94.075 19.4794 94.1111 19.0781 94.1304 18.711L94.1407 18.4718C94.1423 18.4326 94.1433 18.394 94.1443 18.3557L94.1481 18.1319V17.9183L94.1449 17.7152L94.1378 17.5224L94.1282 17.3408C94.1265 17.3118 94.1246 17.2828 94.1227 17.2538L94.1098 17.0879L94.095 16.9329L94.0788 16.7889L94.0531 16.5936L94.0263 16.4234L93.9912 16.2357L93.9751 16.1588C93.5655 14.1417 91.7672 12.7171 89.7695 11.5443L89.4827 11.3785L89.1939 11.2158L88.9042 11.056L88.4692 10.8218L87.8923 10.5177L86.9078 10.0035L86.503 9.78826L86.3709 9.71706L86.1118 9.57529L85.8598 9.43383C84.6203 8.72813 83.6835 8.0351 83.4824 7.23098V7.23098ZM6.76968 7.1737C6.66269 6.73605 6.67944 6.2756 6.73423 6.00788L6.75679 5.90788L6.78257 5.80851C6.97915 5.11294 7.51637 4.39617 8.90469 4.39617C10.2843 4.39617 11.0967 5.23794 11.0967 6.49997V7.93351H16.9807V6.30662C16.9807 2.83003 14.778 1.36991 12.3168 0.798704L12.1022 0.751236C11.9229 0.713543 11.7427 0.680094 11.5618 0.65092L11.3449 0.618008L11.128 0.588578L10.9111 0.562945L10.6952 0.540793C10.6234 0.533849 10.5515 0.527414 10.4796 0.521489L10.2656 0.505667L10.0529 0.492375L9.84151 0.481932L9.63204 0.474337L9.42547 0.468958L9.11932 0.464844H9.01909C8.93079 0.464844 8.84281 0.465477 8.75548 0.466742L8.4938 0.472122C8.32042 0.477186 8.14833 0.48478 7.97817 0.494274L7.72358 0.511363C7.68169 0.514527 7.63947 0.517692 7.59758 0.521489L7.34718 0.544274C7.26458 0.552389 7.18208 0.561356 7.09968 0.571173L6.85476 0.602186C6.65237 0.629717 6.45289 0.661363 6.25663 0.697755L6.02299 0.743325L5.79257 0.793325L5.56602 0.847755C5.49093 0.866742 5.41648 0.886046 5.34301 0.906616L5.12354 0.969907C2.84029 1.65915 1.19448 3.10472 0.779404 5.61294C0.607959 6.65124 0.578311 7.56453 0.826133 8.7351C1.26248 10.7572 3.04139 12.1661 5.0317 13.3497L5.32432 13.5212L5.47159 13.606L5.76711 13.7731L6.21248 14.0196L6.80545 14.3405L7.67943 14.811L8.10418 15.0433L8.517 15.2743L8.78448 15.4288C8.82831 15.4544 8.87214 15.48 8.91532 15.506L9.17185 15.6607C10.2643 16.3329 11.1203 17.025 11.4503 17.8367C11.6668 18.3642 11.6162 19.0341 11.5141 19.4753L11.4967 19.5468C11.4712 19.6496 11.4395 19.7508 11.4019 19.85L11.361 19.9497C11.0864 20.575 10.4964 21.1114 9.19279 21.1114C7.71939 21.1114 6.838 20.2686 6.838 19.0025L6.82962 16.7737H0.5V18.5446C0.5 23.5161 4.31724 25.1503 8.54472 25.2731L8.8093 25.2788L9.07484 25.2807L9.33749 25.2791C9.46833 25.2772 9.59853 25.274 9.72743 25.2696L9.98524 25.2582C10.1129 25.2519 10.2402 25.2436 10.3665 25.2341L10.6179 25.2133L10.866 25.1886C10.9485 25.1797 11.0304 25.1702 11.1122 25.1601L11.3549 25.1269C11.4354 25.1152 11.5157 25.1028 11.595 25.0898L11.8318 25.0487C14.7738 24.5076 16.9662 22.9756 17.4077 19.9785C17.4641 19.5844 17.5042 19.1883 17.5279 18.7911L17.5395 18.5538L17.5466 18.3269C17.5483 18.2544 17.5494 18.1819 17.5498 18.1095L17.5488 17.9022L17.5446 17.705L17.5375 17.5183L17.5279 17.3414L17.5159 17.175L17.5024 17.019L17.4792 16.8044L17.4544 16.6139L17.4209 16.3971L17.3829 16.1867C16.9745 14.1936 15.2301 12.7753 13.2672 11.6091L12.9784 11.4405C12.9302 11.4126 12.8819 11.3848 12.8334 11.3572L12.5411 11.1933L12.2482 11.0322L11.9549 10.874L11.6617 10.7186L10.3687 10.0446L9.95495 9.82687L9.6865 9.6832L9.4245 9.54016L9.16991 9.39776L9.04584 9.32655L8.80414 9.18478C7.73551 8.54554 6.95111 7.9063 6.76968 7.17402V7.1737Z" fill="#B3BBBC"/>
</g>
<defs>
<clipPath id="clip0_58_166">
<rect width="165" height="25" fill="white" transform="translate(0.5 0.464844)"/>
</clipPath>
</defs>
</svg>
