<svg width="149" height="38" viewBox="0 0 149 38" fill="none" xmlns="http://www.w3.org/2000/svg">
<g clip-path="url(#clip0_58_187)">
<path d="M47.7886 29.4629L49.6348 25.2406C51.63 26.7067 54.2801 27.4692 56.9007 27.4692C58.8363 27.4692 60.0573 26.736 60.0573 25.622C60.0275 22.514 48.4734 24.9475 48.3841 17.1482C48.3543 13.19 51.928 10.1406 56.99 10.1406C59.9977 10.1406 63.0054 10.8735 65.1494 12.5448L63.4223 16.855C61.4569 15.6235 59.0152 14.744 56.6923 14.744C55.114 14.744 54.072 15.4769 54.072 16.4153C54.1017 19.4646 65.7452 17.7934 65.8643 25.2406C65.8643 29.287 62.3802 32.1312 57.3774 32.1312C53.7144 32.1312 50.3494 31.2807 47.7886 29.4629V29.4629ZM118.632 23.7159L123.724 26.5015C121.818 29.8733 118.185 32.1312 113.987 32.1312C107.822 32.1312 102.819 27.2053 102.819 21.1359C102.819 15.0665 107.822 10.1406 113.987 10.1406C118.156 10.1406 121.818 12.4275 123.724 15.7703L118.632 18.5556C117.709 16.9723 115.982 15.8876 113.987 15.8876C111.038 15.8876 108.656 18.2331 108.656 21.1359C108.656 24.0387 111.038 26.3842 113.987 26.3842C115.982 26.3842 117.709 25.2993 118.632 23.7159H118.632ZM68.4251 1.02185H74.7977V31.7205H68.4251V1.02185V1.02185ZM126.225 1.02185H132.598V19.0539L139.804 10.5804H147.606L138.703 20.7838L148.321 31.7205H140.162L132.598 22.514V31.7205H126.225V1.02185ZM93.7371 23.7749V18.5849C92.8138 17.0602 90.9081 15.8876 88.7641 15.8876C85.8156 15.8876 83.4338 18.2331 83.4338 21.1359C83.4338 24.0387 85.8156 26.3842 88.7641 26.3842C90.9081 26.3842 92.8138 25.2699 93.7371 23.7746V23.7749ZM93.7371 10.5807H100.11V31.6914H93.7371V29.1993C92.6947 30.9292 90.1039 32.1314 87.3942 32.1314C81.7956 32.1314 77.3886 27.2056 77.3886 21.1069C77.3886 15.0081 81.7956 10.1409 87.3942 10.1409C90.1039 10.1409 92.6947 11.3431 93.7371 13.073V10.5801V10.5807Z" fill="#B3BBBC"/>
<path d="M8.39142 23.7453C8.39142 25.8856 6.6345 27.6157 4.46046 27.6157C3.94411 27.6162 3.43274 27.5165 2.9556 27.3221C2.47847 27.1278 2.04495 26.8427 1.67985 26.4832C1.31475 26.1237 1.02524 25.6968 0.827902 25.227C0.630559 24.7572 0.529255 24.2537 0.529787 23.7453C0.529787 21.605 2.28671 19.8751 4.46046 19.8751H8.39142V23.7453ZM10.3568 23.7453C10.3568 21.605 12.1137 19.8751 14.2874 19.8751C16.4612 19.8751 18.2184 21.605 18.2184 23.7453V33.421C18.2184 35.5614 16.4615 37.2915 14.2874 37.2915C13.7711 37.292 13.2598 37.1922 12.7827 36.9978C12.3056 36.8035 11.8721 36.5184 11.507 36.1589C11.1419 35.7994 10.8525 35.3725 10.6551 34.9027C10.4578 34.4329 10.3565 33.9294 10.357 33.421V23.7453H10.3568Z" fill="#B3BBBC"/>
<path d="M14.2874 8.20553C13.7711 8.20598 13.2598 8.10617 12.7827 7.91181C12.3056 7.71745 11.8721 7.43236 11.507 7.07286C11.1419 6.71335 10.8524 6.28649 10.6551 5.8167C10.4578 5.34691 10.3565 4.84342 10.357 4.33504C10.3567 2.19474 12.1137 0.464844 14.2874 0.464844C16.4612 0.464844 18.2184 2.19474 18.2184 4.33504V8.20553H14.2874V8.20553ZM14.2874 10.1699C16.4612 10.1699 18.2184 11.8998 18.2184 14.0401C18.2184 16.1805 16.4615 17.9106 14.2874 17.9106H4.43067C3.91433 17.9111 3.40295 17.8113 2.92582 17.617C2.44869 17.4227 2.01516 17.1376 1.65006 16.7781C1.28497 16.4186 0.995459 15.9917 0.798117 15.5219C0.600774 15.0521 0.49947 14.5485 0.500002 14.0401C0.500002 11.8998 2.25692 10.1702 4.43067 10.1702H14.2877L14.2874 10.1699Z" fill="#B3BBBC"/>
<path d="M30.0404 14.0401C30.0404 11.8998 31.7974 10.1699 33.9711 10.1699C36.1449 10.1699 37.9021 11.8998 37.9021 14.0401C37.9021 16.1805 36.1452 17.9106 33.9711 17.9106H30.0404V14.0401V14.0401ZM28.0748 14.0401C28.0748 16.1805 26.3182 17.9106 24.1441 17.9106C23.6278 17.9111 23.1164 17.8113 22.6393 17.617C22.1622 17.4227 21.7286 17.1376 21.3635 16.7781C20.9984 16.4186 20.7089 15.9917 20.5116 15.5219C20.3142 15.0521 20.2129 14.5485 20.2135 14.0401V4.33504C20.2135 2.19474 21.9704 0.464844 24.1441 0.464844C26.3179 0.464844 28.0751 2.19474 28.0751 4.33504V14.0404L28.0748 14.0401Z" fill="#B3BBBC"/>
<path d="M24.1441 29.5508C26.3179 29.5508 28.0751 31.2807 28.0751 33.421C28.0751 35.5614 26.3182 37.2915 24.1441 37.2915C23.6278 37.292 23.1164 37.1922 22.6393 36.9979C22.1622 36.8036 21.7286 36.5185 21.3635 36.159C20.9984 35.7995 20.7089 35.3726 20.5116 34.9028C20.3142 34.433 20.2129 33.9294 20.2135 33.421V29.5508H24.1441V29.5508ZM24.1441 27.6155C23.6278 27.6159 23.1165 27.5162 22.6394 27.3219C22.1622 27.1275 21.7287 26.8425 21.3636 26.483C20.9985 26.1235 20.709 25.6967 20.5117 25.2269C20.3143 24.7571 20.213 24.2536 20.2135 23.7453C20.2135 21.605 21.9704 19.8751 24.1441 19.8751H34.0012C36.1749 19.8751 37.9318 21.605 37.9318 23.7453C37.9318 25.8856 36.1749 27.6157 34.0009 27.6157H24.1441V27.6155Z" fill="#B3BBBC"/>
</g>
<defs>
<clipPath id="clip0_58_187">
<rect width="148" height="37" fill="white" transform="translate(0.5 0.464844)"/>
</clipPath>
</defs>
</svg>
