<svg width="148" height="47" viewBox="0 0 148 47" fill="none" xmlns="http://www.w3.org/2000/svg">
<g clip-path="url(#clip0_58_155)">
<path d="M42.8509 33.5351C42.6442 32.9574 42.4025 32.3986 42.1725 31.8809C41.8182 31.0891 41.4572 30.3003 41.0895 29.5146L41.0608 29.4531C37.8127 22.4593 34.4116 15.5369 30.8598 8.69085L30.7079 8.39828C30.3387 7.68018 29.9629 6.96539 29.5808 6.254C29.1222 5.34964 28.566 4.49775 27.9218 3.71342C27.1964 2.85238 26.2901 2.16013 25.2666 1.68542C24.2427 1.21053 23.1267 0.964513 21.9969 0.964661C20.8672 0.964809 19.7513 1.21112 18.7274 1.68628C17.7042 2.1612 16.798 2.85366 16.0728 3.71485C15.4296 4.49934 14.8739 5.351 14.4153 6.25485C14.0297 6.97282 13.6505 7.69418 13.2778 8.41885L13.1371 8.69028C9.58542 15.5367 6.18418 22.4594 2.93585 29.4534L2.88934 29.5534C2.52801 30.3262 2.17304 31.102 1.82445 31.8806C1.59477 32.398 1.35331 32.9566 1.1463 33.5357C0.553309 35.1131 0.364257 36.8126 0.596199 38.4809C0.84253 40.1673 1.52786 41.7603 2.58414 43.1017C3.6412 44.4442 5.03219 45.4887 6.61947 46.132C7.81901 46.6149 9.10127 46.8617 10.3952 46.8588C10.8018 46.8588 11.208 46.8351 11.612 46.7883C13.2484 46.5808 14.8269 46.0508 16.2551 45.2294C18.128 44.1823 19.9778 42.6477 21.9985 40.4548C24.0192 42.6477 25.8687 44.1823 27.7418 45.2291C29.17 46.0508 30.7485 46.5808 32.3849 46.7883C32.7888 46.8352 33.1951 46.8587 33.6017 46.8588C34.8957 46.8617 36.1779 46.6149 37.3772 46.132C38.9646 45.4887 40.3556 44.4442 41.4128 43.1017C42.4691 41.7603 43.1544 40.1673 43.4008 38.4809C43.6325 36.8124 43.4436 35.1128 42.8509 33.5351V33.5351ZM21.9985 35.9257C19.4969 32.7703 17.892 29.84 17.3286 27.3837C17.0978 26.4633 17.0433 25.5079 17.1679 24.5674C17.2664 23.8778 17.5209 23.2195 17.9123 22.642C18.3943 22.0201 19.0133 21.5167 19.7217 21.1706C20.4304 20.8244 21.2094 20.6445 21.9988 20.6446C22.7883 20.6447 23.5672 20.8248 24.2758 21.1711C24.9841 21.5173 25.603 22.0207 26.0849 22.6426C26.4763 23.2202 26.7308 23.8786 26.8294 24.5683C26.9538 25.5091 26.8991 26.4648 26.668 27.3854C26.1041 29.8417 24.4995 32.7711 21.9985 35.9257V35.9257ZM40.4791 38.0654C40.3068 39.2445 39.8277 40.3582 39.0892 41.296C38.3501 42.2347 37.3774 42.9651 36.2675 43.4148C35.1447 43.8625 33.9265 44.0211 32.7257 43.876C31.4777 43.7161 30.275 43.3072 29.1894 42.674C27.5222 41.742 25.8345 40.3111 23.9353 38.212C26.9586 34.5026 28.8466 31.0834 29.5454 28.0377C29.86 26.7572 29.9281 25.4291 29.7464 24.1234C29.5815 22.9982 29.1619 21.925 28.5193 20.9849C27.7659 19.9699 26.7836 19.1452 25.6514 18.5771C24.5185 18.0087 23.2675 17.7126 21.9988 17.7126C20.73 17.7126 19.479 18.0087 18.3462 18.5771C17.2139 19.145 16.2314 19.9695 15.4779 20.9843C14.8355 21.9241 14.4159 22.9969 14.2508 24.1217C14.069 25.427 14.1368 26.7547 14.4507 28.0349C15.1492 31.0814 17.0372 34.5017 20.0614 38.2123C18.1624 40.3111 16.4748 41.742 14.8075 42.6743C13.722 43.3074 12.5192 43.7162 11.2712 43.876C10.0703 44.0211 8.85209 43.8625 7.72914 43.4148C6.61938 42.9651 5.64684 42.2348 4.90772 41.2963C4.16931 40.3584 3.69026 39.2445 3.51811 38.0654C3.35269 36.8671 3.4935 35.6467 3.92753 34.5169C4.09233 34.0551 4.28555 33.6026 4.52472 33.0643C4.86679 32.3004 5.21506 31.5394 5.56951 30.7811L5.61602 30.6806C8.84655 23.7255 12.2291 16.8414 15.7613 10.0331L15.9026 9.76028C16.2643 9.06228 16.6381 8.34028 17.0154 7.64285C17.3764 6.9238 17.8132 6.24503 18.3186 5.618C18.7671 5.07976 19.3294 4.64654 19.9653 4.34917C20.6013 4.05181 21.2953 3.89761 21.9979 3.89756C22.7006 3.8975 23.3946 4.05159 24.0306 4.34886C24.6666 4.64613 25.2289 5.07926 25.6775 5.61742C26.1832 6.24394 26.6202 6.92246 26.981 7.64142C27.3545 8.33285 27.7252 9.04828 28.0838 9.74L28.2359 10.0334C31.7682 16.8417 35.1507 23.7259 38.3809 30.6811L38.4097 30.7429C38.7628 31.5037 39.1283 32.29 39.4722 33.0646C39.7117 33.6034 39.9052 34.0566 40.0697 34.5166C40.5035 35.6464 40.6443 36.8668 40.4791 38.0651V38.0654ZM60.5748 35.5563C59.4235 35.5563 58.364 35.3268 57.3965 34.8674C56.4289 34.408 55.6 33.7646 54.863 32.938C54.126 32.1111 53.5733 31.1466 53.1585 30.0897C52.7439 28.9871 52.5596 27.7926 52.5596 26.5066C52.5596 25.2203 52.7901 23.9797 53.2047 22.8771C53.6193 21.7749 54.2182 20.81 54.9552 19.9371C55.6922 19.1103 56.5673 18.4211 57.5808 17.9617C58.5943 17.5023 59.6537 17.2726 60.8516 17.2726C62.0029 17.2726 63.0164 17.5023 63.938 18.0077C64.8593 18.4671 65.5963 19.1563 66.1949 20.0289L66.3333 17.778H70.5711V35.0971H66.3333L66.1949 32.5706C65.5963 33.4891 64.8131 34.2243 63.7996 34.7754C62.8783 35.2811 61.7726 35.5566 60.5751 35.5566L60.5748 35.5563ZM61.6807 31.422C62.5099 31.422 63.2469 31.1923 63.938 30.7789C64.5828 30.3194 65.0893 29.7223 65.5042 28.9874C65.8725 28.2523 66.0568 27.3794 66.0568 26.4146C66.0568 25.4497 65.8725 24.5769 65.5042 23.842C65.1355 23.1069 64.5825 22.5097 63.938 22.0506C63.2928 21.5909 62.5099 21.4071 61.6807 21.4071C60.8516 21.4071 60.1145 21.6369 59.4235 22.0503C58.7786 22.5097 58.2719 23.1069 57.8573 23.8417C57.4886 24.5769 57.3043 25.4497 57.3043 26.4146C57.3043 27.3794 57.4886 28.2523 57.8573 28.9871C58.2257 29.7223 58.7786 30.3194 59.4235 30.7786C60.1145 31.1923 60.8516 31.422 61.6807 31.422ZM77.8036 13.092C77.8036 13.5974 77.7115 14.0569 77.4809 14.4243C77.2423 14.8075 76.9094 15.1237 76.5137 15.3431C76.0991 15.5729 75.6385 15.6646 75.178 15.6646C74.7172 15.6646 74.2564 15.5729 73.8418 15.3431C73.4461 15.1237 73.1132 14.8075 72.8745 14.4243C72.6443 14.0109 72.5521 13.5974 72.5521 13.092C72.5521 12.5869 72.644 12.1274 72.8745 11.7597C73.1048 11.3463 73.4272 11.0709 73.8421 10.8411C74.2564 10.6114 74.7172 10.5194 75.178 10.5194C75.6385 10.5194 76.0991 10.6114 76.5137 10.8411C76.9095 11.0604 77.2425 11.3766 77.4812 11.7597C77.6653 12.1274 77.8036 12.5409 77.8036 13.092V13.092ZM72.8745 35.0511V17.732H77.4809V35.0511H72.8745V35.0511ZM89.7807 22.2797V22.326C89.5504 22.234 89.2739 22.188 89.0434 22.1423C88.7672 22.0963 88.5367 22.0963 88.2605 22.0963C86.9705 22.0963 86.0032 22.4637 85.3584 23.2449C84.6673 24.0257 84.3449 25.1283 84.3449 26.5523V35.0511H79.7385V17.732H83.9762L84.1146 20.3506C84.5751 19.4317 85.1281 18.7426 85.911 18.2374C86.648 17.7317 87.5232 17.5023 88.5367 17.5023C88.8594 17.5023 89.1818 17.548 89.4583 17.594C89.5961 17.64 89.6882 17.64 89.7807 17.686V22.28V22.2797ZM91.6231 35.0511V10.6111H96.2297V19.9369C96.8746 19.1103 97.6116 18.4669 98.5329 17.9617C99.4546 17.5023 100.468 17.2266 101.619 17.2266C102.771 17.2266 103.83 17.4563 104.798 17.9157C105.765 18.3751 106.594 19.0183 107.331 19.8451C108.069 20.672 108.621 21.6369 109.036 22.6937C109.451 23.796 109.635 24.9903 109.635 26.2766C109.635 27.5631 109.404 28.8034 108.99 29.906C108.575 31.0086 107.977 31.9731 107.239 32.846C106.502 33.6731 105.627 34.362 104.614 34.8214C103.6 35.2809 102.541 35.5106 101.343 35.5106C100.191 35.5106 99.1781 35.2808 98.2567 34.7754C97.3351 34.316 96.5981 33.6269 95.9995 32.7543L95.8611 35.0051L91.6234 35.0511H91.6231ZM100.514 31.422C101.343 31.422 102.08 31.1923 102.771 30.7789C103.416 30.3194 103.923 29.7223 104.337 28.9874C104.706 28.2523 104.89 27.3794 104.89 26.4146C104.89 25.4497 104.706 24.5769 104.337 23.842C103.923 23.1069 103.416 22.5097 102.771 22.0506C102.126 21.5909 101.343 21.4071 100.514 21.4071C99.6845 21.4071 98.9475 21.6369 98.2567 22.0503C97.6116 22.5097 97.1049 23.1069 96.6903 23.8417C96.3219 24.5769 96.1376 25.4497 96.1376 26.4146C96.1376 27.3794 96.3219 28.2523 96.6903 28.9871C97.0589 29.7223 97.6119 30.3194 98.2567 30.7786C98.9475 31.1923 99.6845 31.422 100.514 31.422ZM111.385 35.0511V17.732H115.623L115.762 19.9831C116.268 19.156 116.959 18.5129 117.834 18.0077C118.71 17.5023 119.723 17.2726 120.875 17.2726C122.165 17.2726 123.27 17.594 124.191 18.1914C125.159 18.7886 125.896 19.6614 126.403 20.764C126.909 21.8666 127.186 23.1986 127.186 24.7149V35.0971H122.579V25.312C122.579 24.1177 122.303 23.1529 121.75 22.4634C121.197 21.7749 120.46 21.4071 119.493 21.4071C118.802 21.4071 118.203 21.5449 117.65 21.8666C117.143 22.188 116.729 22.6014 116.406 23.1989C116.084 23.75 115.946 24.4389 115.946 25.1283V35.0511H111.385V35.0511ZM129.489 35.0511V10.6111H134.095V19.9369C134.74 19.1103 135.477 18.4669 136.399 17.9617C137.32 17.5023 138.334 17.2266 139.485 17.2266C140.637 17.2266 141.696 17.4563 142.664 17.9157C143.631 18.3751 144.46 19.0183 145.197 19.8451C145.935 20.672 146.487 21.6369 146.902 22.6937C147.317 23.796 147.5 24.9903 147.5 26.2766C147.5 27.5631 147.271 28.8034 146.856 29.906C146.441 31.0086 145.843 31.9731 145.105 32.846C144.368 33.6731 143.493 34.362 142.479 34.8214C141.466 35.2809 140.406 35.5106 139.209 35.5106C138.057 35.5106 137.044 35.2808 136.122 34.7754C135.201 34.316 134.464 33.6269 133.865 32.7543L133.727 35.0051L129.489 35.0511V35.0511ZM138.426 31.422C139.255 31.422 139.992 31.1923 140.683 30.7789C141.328 30.3194 141.834 29.7223 142.249 28.9874C142.618 28.2523 142.802 27.3794 142.802 26.4146C142.802 25.4497 142.618 24.5769 142.249 23.842C141.881 23.1069 141.328 22.5097 140.683 22.0506C140.038 21.5909 139.255 21.4071 138.426 21.4071C137.596 21.4071 136.859 21.6369 136.168 22.0503C135.524 22.5097 135.017 23.1069 134.602 23.8417C134.188 24.5769 134.049 25.4497 134.049 26.4146C134.049 27.3794 134.234 28.2523 134.602 28.9871C134.971 29.7223 135.524 30.3194 136.168 30.7786C136.859 31.1923 137.551 31.422 138.426 31.422Z" fill="#B3BBBC"/>
</g>
<defs>
<clipPath id="clip0_58_155">
<rect width="147" height="46" fill="white" transform="translate(0.5 0.964844)"/>
</clipPath>
</defs>
</svg>
