<svg width="171" height="69" viewBox="0 0 171 69" fill="none" xmlns="http://www.w3.org/2000/svg">
<g style="mix-blend-mode:hard-light" opacity="0.4">
<path d="M0.384338 68.0619V68.3119H0.634338H18.0885H18.3385V68.0619V27.7321L50.1287 68.2163L50.2038 68.3119H50.3253H67.6905H67.9405V68.0619V0.916748V0.666748H67.6905H50.3253H50.0753V0.916748V41.2465L18.2851 0.762349L18.2101 0.666748H18.0885H0.634338H0.384338V0.916748V68.0619ZM120.243 15.9494H120.493V15.6994V0.916748V0.666748H120.243H81.7725H81.5225V0.916748V68.0619V68.3119H81.7725H99.2267H99.4767V68.0619V41.9526H118.373H118.623V41.7026V26.9199V26.6699H118.373H99.4767V15.9494H120.243ZM156.116 68.3119H156.366V68.0619V15.9494H170.453H170.703V15.6994V0.916748V0.666748H170.453H124.324H124.074V0.916748V15.6994V15.9494H124.324H138.411V68.0619V68.3119H138.661H156.116Z" stroke="#69E4FF" stroke-width="0.5"/>
</g>
</svg>
