<svg width="74" height="74" viewBox="0 0 74 74" fill="none" xmlns="http://www.w3.org/2000/svg">
<g clip-path="url(#clip0_58_160)">
<path d="M0.5 24.7069V39.7875C0.5 45.4663 4.46025 49.2197 9.625 49.2197C12.1374 49.2197 14.3761 48.2585 15.9942 46.5735V48.8121H19.5713V24.7069H15.9577V39.5746C15.9577 43.3979 13.3723 45.9803 10.0356 45.9803C6.65938 45.9803 4.11654 43.4649 4.11654 39.5746V24.71H0.5V24.7069ZM23.13 24.7069V48.8121H26.5671V46.6069C28.1518 48.2251 30.3905 49.2227 32.8329 49.2227C34.0418 49.234 35.2409 49.0054 36.3609 48.5502C37.4808 48.095 38.4994 47.4222 39.3576 46.5708C40.2159 45.7193 40.8967 44.7061 41.3608 43.5898C41.8249 42.4735 42.063 41.2763 42.0613 40.0673C42.067 38.8555 41.8321 37.6547 41.3701 36.5344C40.9082 35.4141 40.2284 34.3966 39.3702 33.541C38.5121 32.6854 37.4926 32.0087 36.371 31.5501C35.2493 31.0914 34.0477 30.8601 32.836 30.8693C31.6749 30.8679 30.5253 31.0988 29.455 31.5486C28.3846 31.9984 27.4151 32.6579 26.6036 33.4882V24.71H23.127L23.13 24.7069ZM53.1482 30.9058C48.0169 30.9058 44.1297 35.0729 44.1297 40.0308C44.1297 45.2625 48.1873 49.1862 53.4554 49.1862C56.6583 49.1862 59.2741 47.7779 61.0292 45.4359L58.5167 43.5774C57.2088 45.3324 55.4873 46.1537 53.4554 46.1537C50.4959 46.1537 48.1234 44.0245 47.6398 41.1654H61.9265V40.0308C61.9265 34.7992 58.2095 30.9058 53.1482 30.9058V30.9058ZM72.2955 31.1127C70.3671 31.1127 68.9558 32.0069 68.095 33.4182V31.2495H64.6548V48.8121H68.1284V38.8202C68.1284 36.101 69.7831 34.349 72.0552 34.349H73.5V31.1096H72.2955V31.1127ZM53.0752 33.9353C55.6606 33.9353 57.8324 35.7238 58.4164 38.4066H47.7067C48.3241 35.7238 50.4928 33.9353 53.0752 33.9353ZM32.5987 33.9718C35.902 33.9718 38.6212 36.6576 38.6212 40.0673C38.6277 41.6725 37.9973 43.2146 36.8683 44.3556C35.7393 45.4966 34.2038 46.1432 32.5987 46.1537C31.8001 46.1553 31.0091 45.9988 30.2713 45.6932C29.5335 45.3876 28.8635 44.939 28.3 44.3732C27.7364 43.8074 27.2905 43.1356 26.9878 42.3965C26.6852 41.6575 26.5318 40.8659 26.5367 40.0673C26.531 39.2684 26.6837 38.4762 26.9857 37.7365C27.2878 36.9968 27.7333 36.3242 28.2965 35.7576C28.8598 35.1909 29.5297 34.7413 30.2676 34.4349C31.0054 34.1284 31.7967 33.971 32.5957 33.9718H32.5987Z" fill="#B3BBBC"/>
</g>
<defs>
<clipPath id="clip0_58_160">
<rect width="73" height="73" fill="white" transform="translate(0.5 0.464844)"/>
</clipPath>
</defs>
</svg>
