<svg width="55" height="57" viewBox="0 0 55 57" fill="none" xmlns="http://www.w3.org/2000/svg">
<g style="mix-blend-mode:screen" filter="url(#filter0_df_58_258)">
<path d="M23.2606 16.1657C22.9486 16.4777 22.3146 16.8873 21.5674 17.3121C19.3656 18.5638 17.8525 20.8091 17.8525 23.3418C17.8525 24.5898 18.9966 26.9819 21.0766 29.7899C23.1567 32.598 26.4847 34.366 30.6448 34.99C34.8049 35.6141 35.5329 34.99 36.3649 33.222C37.1969 31.454 37.8209 26.3579 37.7169 22.0938C37.6129 17.8297 36.9889 18.0377 35.5329 16.1657C34.3681 14.668 29.6394 14.0163 27.4207 13.8776C27.0394 13.8083 26.1103 13.7112 25.4447 13.8776C24.6127 14.0857 24.3007 15.1257 23.2606 16.1657Z" fill="#E0824E"/>
</g>
<defs>
<filter id="filter0_df_58_258" x="0.852539" y="0.785767" width="53.8757" height="55.4399" filterUnits="userSpaceOnUse" color-interpolation-filters="sRGB">
<feFlood flood-opacity="0" result="BackgroundImageFix"/>
<feColorMatrix in="SourceAlpha" type="matrix" values="0 0 0 0 0 0 0 0 0 0 0 0 0 0 0 0 0 0 127 0" result="hardAlpha"/>
<feOffset dy="4"/>
<feGaussianBlur stdDeviation="8.5"/>
<feComposite in2="hardAlpha" operator="out"/>
<feColorMatrix type="matrix" values="0 0 0 0 1 0 0 0 0 1 0 0 0 0 1 0 0 0 0.71 0"/>
<feBlend mode="normal" in2="BackgroundImageFix" result="effect1_dropShadow_58_258"/>
<feBlend mode="normal" in="SourceGraphic" in2="effect1_dropShadow_58_258" result="shape"/>
<feGaussianBlur stdDeviation="1" result="effect2_foregroundBlur_58_258"/>
</filter>
</defs>
</svg>
