<svg width="305" height="9" viewBox="0 0 305 9" fill="none" xmlns="http://www.w3.org/2000/svg">
<path d="M97.0807 3.29391L4.8434 4.76158L1.89053 4.80856C1.66407 4.81217 1.44366 4.88217 1.25662 5.00989C0.316817 5.65165 0.770503 7.15408 1.90793 7.19069C5.32573 7.30069 9.85732 7.56331 13.49 8.10951C18.7525 8.90076 32.4489 8.17242 38.6393 7.70934L44.3799 7.618C43.5801 7.63073 44.5078 8.92322 45.3044 8.8501L61.7384 7.34179L298.603 6.43996C298.809 6.43917 299.006 6.35527 299.15 6.20725L299.522 5.82331C299.635 5.7064 299.623 5.51748 299.497 5.41529C299.295 5.25273 299.407 4.9272 299.666 4.92308L303.268 4.86578C303.708 4.85877 304.124 4.66534 304.413 4.33358C304.861 3.81942 304.921 3.07297 304.561 2.49377L304.435 2.29067C304.104 1.75784 303.528 1.42594 302.901 1.40629L274.806 0.525873C273.964 0.499485 273.122 0.575512 272.298 0.752282L267.752 1.72789C266.8 1.93217 265.823 2.01176 264.856 1.90402C262.847 1.68032 260.724 1.25533 262.194 0.666656C264.503 -0.258013 230.342 0.8135 217.494 1.01794L186.871 1.50519C185.336 1.52962 169.057 2.14864 149.208 0.836033C129.359 -0.476577 142.124 1.0027 133.981 1.13227C125.838 1.26183 142.361 2.57342 97.0807 3.29391Z" fill="url(#paint0_linear_53_186)"/>
<defs>
<linearGradient id="paint0_linear_53_186" x1="7.61057" y1="6.37809" x2="78.1173" y2="135.532" gradientUnits="userSpaceOnUse">
<stop stop-color="#35D5EB"/>
<stop offset="1" stop-color="#2AED9C"/>
</linearGradient>
</defs>
</svg>
