<svg width="63" height="57" viewBox="0 0 63 57" fill="none" xmlns="http://www.w3.org/2000/svg">
<g style="mix-blend-mode:screen" filter="url(#filter0_df_58_256)">
<path d="M25.7042 14.6122C27.8595 14.0535 31.4229 13.7579 34.5361 13.6154C37.532 13.4782 40.4168 14.6556 42.5862 16.7264C44.8915 18.9269 46.4239 22.1572 44.8509 24.9289C44.7275 25.1462 44.5936 25.3616 44.4484 25.5728C42.7011 28.1144 42.3834 29.544 36.9825 33.0387C33.7648 35.1208 30.1712 35.57 27.737 35.4888C26.3803 35.4435 24.9666 35.3105 23.7601 34.6885C23.0969 34.3467 22.3036 33.8225 21.4153 33.0387C18.7149 30.656 17.9206 28.9086 17.6029 23.0312C17.2852 17.1538 21.4153 15.7242 25.7042 14.6122Z" fill="#E0824E"/>
</g>
<defs>
<filter id="filter0_df_58_256" x="0.585693" y="0.604614" width="61.9074" height="55.8931" filterUnits="userSpaceOnUse" color-interpolation-filters="sRGB">
<feFlood flood-opacity="0" result="BackgroundImageFix"/>
<feColorMatrix in="SourceAlpha" type="matrix" values="0 0 0 0 0 0 0 0 0 0 0 0 0 0 0 0 0 0 127 0" result="hardAlpha"/>
<feOffset dy="4"/>
<feGaussianBlur stdDeviation="8.5"/>
<feComposite in2="hardAlpha" operator="out"/>
<feColorMatrix type="matrix" values="0 0 0 0 1 0 0 0 0 1 0 0 0 0 1 0 0 0 0.71 0"/>
<feBlend mode="normal" in2="BackgroundImageFix" result="effect1_dropShadow_58_256"/>
<feBlend mode="normal" in="SourceGraphic" in2="effect1_dropShadow_58_256" result="shape"/>
<feGaussianBlur stdDeviation="1" result="effect2_foregroundBlur_58_256"/>
</filter>
</defs>
</svg>
