<svg width="378" height="541" viewBox="0 0 378 541" fill="none" xmlns="http://www.w3.org/2000/svg">
<g opacity="0.08">
<path fill-rule="evenodd" clip-rule="evenodd" d="M6.35719 185.934C6.35719 83.3097 89.5509 0.116119 192.175 0.116119C294.8 0.116119 377.994 83.3097 377.994 185.934V264.401C377.994 264.953 377.546 265.401 376.994 265.401H277.392C276.839 265.401 276.392 264.953 276.392 264.401V185.934C276.392 139.423 238.687 101.718 192.175 101.718C145.664 101.718 107.959 139.423 107.959 185.934V344.868C107.959 391.379 145.664 429.084 192.175 429.084H277.102C277.654 429.084 278.102 429.532 278.102 430.084V529.686C278.102 530.238 277.654 530.686 277.102 530.686H192.175C89.5509 530.686 6.35719 447.492 6.35719 344.868V185.934Z" fill="url(#paint0_linear_49_70)"/>
<path fill-rule="evenodd" clip-rule="evenodd" d="M4.41768 362.795V228.677C4.41768 186.616 -29.6793 152.519 -71.7399 152.519C-113.801 152.519 -147.898 186.616 -147.898 228.677V362.795C-147.898 404.855 -113.801 438.952 -71.7399 438.952C-29.6793 438.952 4.41768 404.855 4.41768 362.795ZM-71.7399 50.9171C-169.914 50.9171 -249.499 130.503 -249.499 228.677V362.795C-249.499 460.968 -169.914 540.554 -71.7399 540.554C26.4339 540.554 106.02 460.968 106.02 362.795V228.677C106.02 130.503 26.4339 50.9171 -71.7399 50.9171Z" fill="url(#paint1_linear_49_70)"/>
</g>
<defs>
<linearGradient id="paint0_linear_49_70" x1="-230.167" y1="249.132" x2="413.853" y2="289.493" gradientUnits="userSpaceOnUse">
<stop stop-color="#35D5EB"/>
<stop offset="1" stop-color="#2AED9C"/>
</linearGradient>
<linearGradient id="paint1_linear_49_70" x1="-230.167" y1="249.132" x2="413.853" y2="289.493" gradientUnits="userSpaceOnUse">
<stop stop-color="#35D5EB"/>
<stop offset="1" stop-color="#2AED9C"/>
</linearGradient>
</defs>
</svg>
