<svg width="580" height="784" viewBox="0 0 580 784" fill="none" xmlns="http://www.w3.org/2000/svg">
<g opacity="0.06">
<path fill-rule="evenodd" clip-rule="evenodd" d="M370.631 269.589C370.631 120.956 491.122 0.464844 639.756 0.464844C788.389 0.464844 908.88 120.956 908.88 269.589V383.682C908.88 384.235 908.432 384.682 907.88 384.682H762.728C762.176 384.682 761.728 384.235 761.728 383.682V269.589C761.728 202.226 707.119 147.617 639.756 147.617C572.392 147.617 517.783 202.226 517.783 269.589V499.776C517.783 567.139 572.392 621.748 639.756 621.748H763.205C763.757 621.748 764.205 622.196 764.205 622.748V767.9C764.205 768.452 763.757 768.9 763.205 768.9H639.756C491.122 768.9 370.631 648.409 370.631 499.776V269.589Z" fill="url(#paint0_linear_58_230)"/>
<path fill-rule="evenodd" clip-rule="evenodd" d="M367.822 525.74V331.494C367.822 270.576 318.439 221.193 257.522 221.193C196.604 221.193 147.221 270.576 147.221 331.494V525.74C147.221 586.657 196.604 636.041 257.522 636.041C318.439 636.041 367.822 586.657 367.822 525.74ZM257.522 74.0409C115.334 74.0409 0.0687256 189.306 0.0687256 331.494V525.74C0.0687256 667.927 115.334 783.193 257.522 783.193C399.709 783.193 514.974 667.927 514.974 525.74V331.494C514.974 189.307 399.709 74.0409 257.522 74.0409Z" fill="url(#paint1_linear_58_230)"/>
</g>
<defs>
<linearGradient id="paint0_linear_58_230" x1="28.0682" y1="361.119" x2="960.815" y2="419.576" gradientUnits="userSpaceOnUse">
<stop stop-color="#35D5EB"/>
<stop offset="1" stop-color="#2AED9C"/>
</linearGradient>
<linearGradient id="paint1_linear_58_230" x1="28.0682" y1="361.119" x2="960.815" y2="419.576" gradientUnits="userSpaceOnUse">
<stop stop-color="#35D5EB"/>
<stop offset="1" stop-color="#2AED9C"/>
</linearGradient>
</defs>
</svg>
